<?xml version="1.0" encoding="UTF-8" standalone="no"?>
<!-- Created with Inkscape (http://www.inkscape.org/) -->

<svg
   xmlns:dc="http://purl.org/dc/elements/1.1/"
   xmlns:cc="http://creativecommons.org/ns#"
   xmlns:rdf="http://www.w3.org/1999/02/22-rdf-syntax-ns#"
   xmlns:svg="http://www.w3.org/2000/svg"
   xmlns="http://www.w3.org/2000/svg"
   xmlns:sodipodi="http://sodipodi.sourceforge.net/DTD/sodipodi-0.dtd"
   xmlns:inkscape="http://www.inkscape.org/namespaces/inkscape"
   id="svg2"
   version="1.1"
   inkscape:version="0.48.2 r9819"
   width="1830"
   height="630"
   sodipodi:docname="Falling in Reverse - Logo.svg"
   inkscape:export-filename="C:\Users\York\Pictures\Yorks Bilder\Musik\Falling in Reverse - Logo.png"
   inkscape:export-xdpi="99.776558"
   inkscape:export-ydpi="99.776558">
  <metadata
     id="metadata8">
    <rdf:RDF>
      <cc:Work
         rdf:about="">
        <dc:format>image/svg+xml</dc:format>
        <dc:type
           rdf:resource="http://purl.org/dc/dcmitype/StillImage" />
        <dc:title></dc:title>
      </cc:Work>
    </rdf:RDF>
  </metadata>
  <defs
     id="defs6" />
  <sodipodi:namedview
     pagecolor="#ffffff"
     bordercolor="#666666"
     borderopacity="1"
     objecttolerance="10"
     gridtolerance="10"
     guidetolerance="10"
     inkscape:pageopacity="0"
     inkscape:pageshadow="2"
     inkscape:window-width="1680"
     inkscape:window-height="988"
     id="namedview4"
     showgrid="false"
     inkscape:zoom="0.40983607"
     inkscape:cx="915"
     inkscape:cy="705.4"
     inkscape:window-x="-8"
     inkscape:window-y="-8"
     inkscape:window-maximized="1"
     inkscape:current-layer="svg2" />
  <path
     style="fill:#000000"
     d="m 883,614.87462 c 0,-2.70308 3.36617,-13.45969 4.64369,-14.83891 2.23299,-2.41075 1.72695,4.24356 -0.64369,8.46429 -1.1,1.95846 -2,4.19559 -2,4.9714 0,0.77581 -0.45,1.68868 -1,2.0286 -0.55,0.33992 -1,0.0585 -1,-0.62538 z m 39.41491,-7.54341 c -0.9658,-2.10716 -2.23688,-4.45701 -2.82463,-5.22187 -1.4974,-1.94861 -1.6169,-7.10934 -0.16462,-7.10934 1.21535,0 6.15589,14.75179 5.24545,15.66222 -0.27511,0.27511 -1.2904,-1.22384 -2.2562,-3.33101 z M 889,592.42588 c 0,-0.21227 2.48151,-9.18195 5.51447,-19.93263 5.90157,-20.91879 5.85503,-19.59583 0.8722,-24.7902 -1.16233,-1.21168 -3.37456,-5.80305 -4.91607,-10.20305 -1.54151,-4.4 -3.3245,-8.675 -3.96221,-9.5 -0.63771,-0.825 -2.41315,-4.2 -3.94543,-7.5 -1.53227,-3.3 -3.15714,-6.675 -3.61082,-7.5 -4.11151,-7.47668 -8.55987,-18.08673 -8.13712,-19.40836 0.1598,-0.4996 -0.0937,-1.1746 -0.56336,-1.5 C 868.8581,491.1261 863,480.15862 863,478.51515 863,477.68182 862.60751,477 862.12781,477 c -0.47971,0 -1.1422,-1.68851 -1.4722,-3.75225 -0.33001,-2.06373 -2.176,-6.22623 -4.10221,-9.25 -1.92622,-3.02376 -3.51373,-6.31483 -3.5278,-7.31349 -0.0258,-1.83063 -1.77305,-5.75857 -2.97332,-6.68426 -1.68892,-1.30256 -6.07662,-10.1516 -5.49787,-11.08803 0.36032,-0.58302 -0.19482,-2.03921 -1.23365,-3.236 C 840.4681,432.38955 837,425.49691 837,423.11385 837,421.90154 836.36026,421 835.5,421 c -0.825,0 -1.39029,-0.3375 -1.25621,-0.75 0.13409,-0.4125 -0.73084,-2.325 -1.92205,-4.25 -1.19121,-1.925 -2.47577,-4.74175 -2.85457,-6.25945 -0.3788,-1.5177 -1.04013,-2.97662 -1.46962,-3.24206 -0.42949,-0.26544 -2.21281,-3.45161 -3.96293,-7.08037 -2.91722,-6.04867 -3.05106,-6.74247 -1.60833,-8.33668 0.86554,-0.9564 1.57371,-2.23566 1.57371,-2.84279 0,-1.30421 -3.57826,-2.61733 -4.90232,-1.79902 C 818.16262,387.01753 811,373.54293 811,371.20596 c 0,-0.70198 -0.73138,-2.39256 -1.6253,-3.75684 -1.16464,-1.77747 -1.44472,-3.60979 -0.98818,-6.46482 C 808.89338,357.81458 808.71455,357 807.51182,357 806.45069,357 806,355.9566 806,353.5 l 0,-3.5 16,0 c 9.79283,0 16,-0.38056 16,-0.98095 0,-1.7247 -4.13817,-2.09823 -20,-1.8053 l -15.5,0.28625 -0.27071,20.25 -0.2707,20.25 -2.85798,0 c -2.2407,0 -3.12977,-0.6562 -4.11644,-3.03822 -0.69216,-1.67102 -2.06717,-3.47102 -3.05558,-4 C 790.84542,380.38209 769.84448,380 739.06574,380 L 688,380 l 0,18 0,18 33.06574,0 c 19.25556,0 33.81632,-0.4017 34.86285,-0.96178 0.98841,-0.52898 2.36342,-2.32898 3.05558,-4 C 759.97382,408.64899 760.85755,408 763.12132,408 l 2.87868,0 0,22 0,22 -3.03138,0 c -1.98395,0 -3.24583,-0.60468 -3.652,-1.75 -1.90911,-5.38325 -0.95801,-5.25 -37.47161,-5.25 L 688,445 l 0,21 0,21 51.4349,0 c 30.33055,0 52.46774,-0.39268 53.9521,-0.95704 1.38447,-0.52637 3.22532,-2.32637 4.09078,-4 C 798.69605,479.6871 799.72296,479 802.02568,479 l 2.97432,0 0,22.5 0,22.5 -3.5,0 c -2.7894,0 -3.5,-0.39132 -3.5,-1.92742 0,-1.06008 -1.18569,-2.86008 -2.63486,-4 C 792.75211,516.01717 792.10167,516 716.86514,516 L 641,516 l 0.003,-2.75 c 0.002,-2.15334 0.81574,-3.18434 3.75,-4.75186 l 3.7473,-2.00186 0.25659,-72.30157 c 0.16576,-46.70621 -0.0968,-72.96189 -0.74168,-74.16686 -0.54905,-1.02591 -2.35202,-2.16262 -4.00659,-2.52602 C 641.38032,356.92462 641,356.40945 641,353.42687 l 0,-3.41422 75.25,-0.25632 c 49.32912,-0.16804 75.25,-0.60079 75.25,-1.25633 0,-0.65643 -27.57113,-1.0796 -80.25,-1.23169 -79.41414,-0.22928 -80.25,-0.21105 -80.25,1.75 0,2.60754 -1.637,2.52847 -3.06954,-0.14825 l -1.13992,-2.12995 -42.14527,0.61163 C 561.46537,347.68813 502.3375,347.97161 453.25,347.98168 394.42888,347.99376 364,348.34094 364,349 c 0,0.55 2.25,1 5,1 4.98398,0 5,0.0105 5,3.28076 0,2.72463 -0.5069,3.4721 -2.99034,4.40949 -1.7055,0.64376 -3.42415,2.26975 -4,3.78434 -1.30852,3.44166 -1.38571,140.40612 -0.0811,143.83759 0.52338,1.37659 2.26887,2.90961 4,3.51308 2.52377,0.87979 3.07141,1.61489 3.07141,4.12272 l 0,3.05202 -27,0 -27,0 0,-2.88499 c 0,-1.97384 0.78956,-3.40233 2.5,-4.52305 1.375,-0.90094 2.5,-2.0825 2.5,-2.62569 0,-1.18388 -9.79562,-11.55663 -49.07489,-51.96627 -16.30576,-16.775 -32.91535,-33.9875 -36.9102,-38.25 -3.99484,-4.2625 -7.65745,-7.75 -8.13913,-7.75 -1.17378,0 -1.13496,94.18811 0.0401,97.27873 0.50374,1.32492 2.30374,2.98381 4,3.68642 2.43541,1.00878 3.08413,1.883 3.08413,4.15617 l 0,2.87868 -25.5,0 -25.5,0 0,-3.05202 c 0,-2.50783 0.54764,-3.24293 3.07141,-4.12272 1.73113,-0.60347 3.47662,-2.13649 4,-3.51308 1.30464,-3.43147 1.22745,-140.39593 -0.0811,-143.83759 -0.57585,-1.51459 -2.2945,-3.14058 -4,-3.78434 C 187.39621,356.71108 187,356.06059 187,352.78076 L 187,349 l -10,0 -10,0 0,3.89159 c 0,3.28718 -0.37742,3.98632 -2.43007,4.5015 C 158.64389,358.88044 159,352.95968 159,449.99885 l 0,88.85599 2.63486,2.07258 c 1.44917,1.13992 3.24917,2.07258 4,2.07258 0.89349,0 1.36514,1.20922 1.36514,3.5 l 0,3.5 -27,0 -27,0 0,-3.31953 c 0,-2.78502 0.52332,-3.54987 3.25,-4.75 l 3.25,-1.43047 0.0557,-8 c 0.0306,-4.4 0.43695,-24.92567 0.90294,-45.61259 0.77076,-34.21593 0.698,-37.82571 -0.80567,-39.97251 -2.05095,-2.92814 -2.10926,-8.09285 -0.16377,-14.50597 0.81904,-2.69991 1.49404,-6.33412 1.5,-8.07602 0.0121,-3.54734 -2.94451,-11.05707 -6.09541,-15.4821 -1.94827,-2.73608 -1.97736,-3.07429 -0.46324,-5.38512 0.88856,-1.35613 1.95818,-2.46569 2.37692,-2.46569 1.35338,0 4.21693,-5.77289 3.62661,-7.31123 -0.31482,-0.82043 -1.44128,-1.7189 -2.50323,-1.99661 C 116.86887,391.41445 116,390.34445 116,389.31438 c 0,-1.03007 -0.9,-2.52154 -2,-3.31438 -1.1,-0.79284 -2,-1.94743 -2,-2.56577 0,-1.74218 3.23041,-4.21509 6,-4.59305 2.3218,-0.31686 2.5211,-0.7819 2.79598,-6.52409 0.42688,-8.91767 -0.71786,-12.51142 -4.56052,-14.31709 -1.99354,-0.93676 -3.20605,-2.25098 -3.22913,-3.5 -0.0848,-4.58744 -0.51178,-4.67045 -23.115083,-4.49328 C 78.126061,350.09894 63.8875,350.13515 58.25,350.0872 L 48,350 l 0,-6 0,-6 6,-0.175 c 3.3,-0.0962 7.2375,-0.29203 8.75,-0.43506 1.5125,-0.14303 4.325,-0.35312 6.25,-0.46686 1.925,-0.11375 7.1,-0.65168 11.5,-1.1954 4.4,-0.54372 11.347312,-0.95574 15.43847,-0.9156 4.09116,0.0402 7.86314,-0.18947 8.38218,-0.51025 0.51903,-0.32078 6.84672,-0.67806 14.06153,-0.79395 7.2148,-0.11589 14.09245,-0.52088 15.28366,-0.89997 1.23119,-0.39182 2.45635,-0.21921 2.83903,0.39997 0.4821,0.78006 1.06126,0.76717 2.04035,-0.0454 0.75194,-0.62406 1.79492,-0.87029 2.31772,-0.54718 0.5359,0.3312 0.72224,-0.28557 0.42717,-1.41391 -0.28786,-1.10076 -1.25839,-2.03301 -2.15674,-2.07167 -1.27491,-0.0549 -1.20621,-0.23744 0.31308,-0.83199 1.80271,-0.70546 1.76579,-0.81003 -0.5,-1.41606 -1.34555,-0.35989 -7.73395,-0.6605 -14.19645,-0.66801 L 113,326 l 0,-3.98658 c 0,-3.59361 0.33733,-4.12753 3.42222,-5.41647 6.60426,-2.75944 6.34547,-0.28425 6.52559,-62.41186 0.16216,-55.93375 0.1498,-56.3077 -1.82653,-55.25 -2.42551,1.2981 -3.12128,1.33673 -3.12128,0.17332 0,-0.49038 1.18639,-1.18936 2.63643,-1.5533 l 2.63643,-0.6617 -0.83746,-32.6967 c -0.46061,-17.98319 -0.8595,-38.29871 -0.88643,-45.14559 L 121.5,106.60224 117.25,104.5522 C 113.36968,102.68048 113,102.17588 113,98.751081 L 113,95 214.85078,95 C 286.81376,95 317.6346,94.674738 319.88116,93.891583 322.98358,92.810075 326,88.697731 326,85.54966 326,84.379693 327.10258,84 330.5,84 l 4.5,0 0,31 0,31 -4.5,0 c -3.82141,0 -4.5,-0.29922 -4.5,-1.98422 0,-1.09133 -1.31295,-3.45383 -2.91766,-5.25 l -2.91766,-3.26578 -71.96002,-0.26924 -71.96003,-0.26924 -0.0549,26.01924 -0.0549,26.01924 46.48223,0 c 52.0728,0 50.84452,0.15889 53.9963,-6.9848 1.62085,-3.67374 2.09531,-4.0152 5.57906,-4.0152 l 3.80755,0 0,30.5 0,30.5 -3.80073,0 c -3.51704,0 -3.96481,-0.3377 -5.99881,-4.5243 -2.80908,-5.78193 -5.08868,-6.61617 -17.10587,-6.26004 -9.1577,0.27139 -9.60946,0.38925 -9.9212,2.58822 -0.33833,2.38655 -4.49931,4.73076 -6.35805,3.58199 -0.55926,-0.34563 -0.75653,-1.92991 -0.43839,-3.5206 l 0.57843,-2.89218 -33.22769,0.26346 L 176.5,226.5 l -0.31052,33.32461 c -0.22905,24.58053 -1.3e-4,33.69862 0.87244,34.75 0.84484,1.01797 0.86214,1.42539 0.0605,1.42539 -0.61734,0 -1.08691,1.0125 -1.04349,2.25 0.0434,1.2375 0.30592,1.6875 0.58333,1 0.72309,-1.79199 2.11029,-1.54075 2.76064,0.5 0.35354,1.10937 1.72337,1.8318 3.74196,1.97344 3.31045,0.2323 5.15714,1.9212 4.07718,3.72881 -0.34429,0.57626 0.12967,0.43491 1.05325,-0.31413 0.92357,-0.74903 2.36145,-1.10008 3.19528,-0.7801 1.26834,0.4867 1.23866,0.15839 -0.18167,-2.00931 -1.55634,-2.37527 -1.75589,-2.43522 -2.39599,-0.71989 -0.66005,1.76878 -0.738,1.77373 -1.42442,0.0903 -0.39939,-0.97947 -0.45894,-3.11697 -0.13234,-4.75 C 187.78534,294.8233 187.56696,294 186.56862,294 c -0.88905,0 -1.19498,0.71281 -0.85837,2 0.30399,1.16245 0.0307,2 -0.65264,2 -0.6466,0 -0.92904,-0.39901 -0.62764,-0.88669 0.79611,-1.28813 -2.15384,-3.43325 -3.83448,-2.78833 C 179.4855,294.75093 178,293.20992 178,291.6325 c 0,-0.79665 4.02516,0.0163 4.11831,0.83179 0.0651,0.56964 0.46184,-0.31429 0.88169,-1.96429 0.71978,-2.8287 0.77436,-2.85725 0.95585,-0.5 0.17179,2.23126 0.37982,2.07558 1.93525,-1.44825 1.32765,-3.0078 1.89535,-3.55063 2.38334,-2.27894 0.36371,0.9478 -0.0408,2.35073 -0.93598,3.24587 -1.82863,1.82863 -1.02485,3.29586 0.92091,1.68102 2.12151,-1.76069 3.94465,0.20418 3.6316,3.91393 -0.15717,1.8625 0.23938,4.28637 0.88122,5.38637 1.02054,1.74902 1.17081,1.78039 1.1974,0.25 0.0167,-0.9625 -0.44615,-1.75 -1.02861,-1.75 -0.58246,0 -0.7809,-0.45 -0.44098,-1 1.0632,-1.72029 2.51167,-1.09951 3.5,1.5 0.52277,1.375 1.11143,2.5 1.30813,2.5 0.84667,0 -0.0446,-4.13642 -1.12374,-5.21561 -0.65142,-0.65142 -1.15587,-3.00689 -1.121,-5.23439 0.0555,-3.5477 0.17979,-3.75949 1.00194,-1.70765 0.5162,1.2883 0.71206,2.70883 0.43523,3.15674 -0.27683,0.44792 0.30087,0.60409 1.28377,0.34706 1.85062,-0.48395 1.8593,-0.4599 2.47373,6.85499 0.33705,4.01269 1.67271,6.33093 1.85263,3.21553 0.22667,-3.92495 -0.34957,-6.93851 -1.46308,-7.65136 -0.74476,-0.47678 -0.55402,-0.74006 0.54337,-0.75 0.93004,-0.008 1.97648,0.44662 2.32541,1.01121 0.34893,0.56459 1.16299,0.96127 1.80902,0.88152 0.64602,-0.0798 2.06209,-0.0917 3.14681,-0.0265 1.88865,0.11346 1.87666,0.21383 -0.28292,2.36848 -1.92997,1.92557 -2.39238,2.03371 -3.20691,0.75 -1.3251,-2.08838 -1.2178,-0.61077 0.17813,2.45295 1.28117,2.81187 2.83948,3.38649 2.83948,1.04705 0,-0.825 0.3375,-1.44671 0.75,-1.38158 2.01059,0.31746 2.59727,-0.25891 1.25,-1.22807 -1.20834,-0.86921 -1.11111,-0.9448 0.5,-0.38875 1.1,0.37965 2.67378,0.96294 3.49729,1.29622 1.20093,0.48601 1.14688,0.0712 -0.27305,-2.09594 C 212.1889,297.35866 212.15939,297 213.50195,297 c 0.92006,0 1.79145,1.217 2.14805,3 0.33,1.65 1.09388,3 1.69751,3 0.60362,0 0.15013,0.66357 -1.00778,1.47459 -1.1579,0.81103 -2.31529,2.9055 -2.57197,4.65438 -0.3927,2.67565 -0.2749,2.91749 0.74302,1.5254 1.58775,-2.17138 2.59973,-2.11672 1.7706,0.0956 -0.56117,1.49738 -0.42513,1.56255 0.94236,0.45144 0.95383,-0.77499 1.8361,-0.91364 2.18823,-0.34388 0.69849,1.13019 4.58803,0.30431 4.58803,-0.97419 0,-0.76962 -3.04296,-1.35027 -5.25,-1.00179 -1.33163,0.21026 -0.80485,-1.02769 1.70822,-4.0143 1.35203,-1.60679 2.21308,-3.56029 1.91344,-4.34112 -0.44991,-1.17247 -0.1179,-1.21823 1.90667,-0.26279 l 2.45145,1.1569 -1.94105,3.53986 -1.94106,3.53987 2.57617,-2.70636 c 1.41689,-1.48849 2.57616,-3.17599 2.57616,-3.75 0,-0.574 0.45,-1.04364 1,-1.04364 0.55,0 1,0.50248 1,1.11663 0,0.61415 0.87311,0.88831 1.94025,0.60925 1.66259,-0.43478 1.77705,-0.24607 0.79985,1.31868 -0.62722,1.00434 -1.50033,1.60362 -1.94025,1.33174 -0.43992,-0.27188 -0.79985,0.20722 -0.79985,1.06468 0,0.87655 0.84968,1.55902 1.94098,1.55902 2.326,0 3.58631,-1.62162 1.81525,-2.33564 -0.75786,-0.30554 -0.56198,-0.53778 0.49377,-0.58541 1.94699,-0.0878 2.42361,2.52985 0.57295,3.14673 -0.67214,0.22405 -0.84183,0.93475 -0.39559,1.65678 0.58334,0.94388 1.14963,0.73878 2.23375,-0.80902 2.20348,-3.1459 3.61115,-2.53122 3.15481,1.37761 -0.32635,2.7954 -0.1485,3.23993 0.9361,2.33979 0.73645,-0.6112 1.12387,-1.67189 0.86093,-2.3571 -0.26294,-0.6852 0.50408,-2.06367 1.70449,-3.06325 1.20041,-0.99958 1.62006,-1.17686 0.93256,-0.39396 -1.74382,1.98581 -1.56896,2.7068 0.80715,3.32816 1.6065,0.42011 1.81997,0.25218 0.97448,-0.76658 -0.80387,-0.96861 -0.67646,-1.46042 0.49478,-1.90987 0.86761,-0.33293 1.3322,-0.20849 1.03244,0.27654 -0.29977,0.48503 0.54687,1.15592 1.88141,1.49087 1.33454,0.33495 2.72252,1.54186 3.0844,2.68203 0.36187,1.14017 0.88813,1.84286 1.16947,1.56152 0.28133,-0.28133 1.59025,-0.10138 2.90869,0.39989 3.05603,1.1619 3.16508,-0.38782 0.17467,-2.48239 -1.22237,-0.85618 -1.76237,-1.5567 -1.2,-1.5567 0.56238,0 1.54776,0.52525 2.18973,1.16722 0.88962,0.88962 1.31416,0.78429 1.78508,-0.4429 0.47947,-1.24949 1.15875,-1.40448 3.03278,-0.69197 2.27961,0.8667 2.84197,0.56257 2.50856,-1.35668 -0.0788,-0.45338 0.31796,-0.53932 0.88158,-0.19098 0.56363,0.34834 1.03846,1.39429 1.05519,2.32433 0.0278,1.54645 0.11791,1.54073 1.05412,-0.0669 0.56304,-0.96686 0.75099,-2.1992 0.41765,-2.73855 -0.34256,-0.55427 0.057,-0.7262 0.91892,-0.39543 1.35493,0.51993 1.36072,0.97832 0.0519,4.11067 -0.81017,1.93901 -1.48672,3.80802 -1.50345,4.15335 -0.0167,0.34534 -0.50305,-0.18457 -1.08072,-1.17757 -0.78011,-1.34097 -1.38402,-1.5285 -2.34745,-0.72893 -0.97869,0.81225 -1.42689,0.58036 -1.82566,-0.94454 -0.29069,-1.1116 -1.13315,-2.01419 -1.87214,-2.00577 -0.81428,0.009 -0.94966,0.30475 -0.34362,0.75 0.55,0.40408 1.56631,1.74719 2.25847,2.98469 1.05999,1.89513 1.02056,2.25 -0.25,2.25 -0.82966,0 -1.50847,0.53601 -1.50847,1.19113 0,0.65512 -0.63247,0.32618 -1.40548,-0.73098 -1.30284,-1.78174 -1.36741,-1.70441 -0.88411,1.05887 0.28675,1.63954 1.22387,3.53883 2.08248,4.22065 2.14148,1.70054 0.86066,2.68046 -1.70724,1.30617 -1.84817,-0.98911 -2.48455,-2.80196 -2.36438,-6.73536 0.063,-2.0624 -2.64603,-2.31959 -3.69947,-0.35122 -1.81702,3.39515 -4.11645,5.04074 -7.04354,5.04074 -1.68683,0 -3.30093,0.72462 -3.89816,1.75 -0.91338,1.56818 -1.02244,1.51958 -1.04969,-0.46778 -0.0255,-1.86081 -0.38427,-2.08687 -2.22891,-1.40449 -2.37799,0.87967 -3.68939,3.12227 -1.82582,3.12227 0.6283,0 0.86424,0.45 0.52432,1 -0.69505,1.12462 0.90749,1.26551 4.23875,0.37266 1.23132,-0.33002 1.99226,-0.99888 1.69099,-1.48635 -0.30128,-0.48747 -0.0712,-0.88631 0.51124,-0.88631 0.58246,0 1.02739,1.4625 0.98873,3.25 -0.0589,2.72353 -0.2095,2.92602 -0.92971,1.25 -0.75596,-1.75921 -0.86789,-1.6618 -0.92971,0.80902 -0.0408,1.63221 0.34865,2.5501 0.92971,2.19098 0.55,-0.33992 1,-0.0933 1,0.54797 0,0.6413 0.675,0.90699 1.5,0.5904 0.825,-0.31658 1.5,-0.15385 1.5,0.36163 0,0.51548 0.68649,0.6738 1.52552,0.35183 1.12331,-0.43105 1.24234,-0.92662 0.45145,-1.87959 -0.74582,-0.89865 -0.75362,-1.49224 -0.0255,-1.94223 1.80991,-1.11859 2.71586,0.25218 2.594,3.92489 -0.14721,4.43686 1.11893,4.6027 2.25306,0.2951 0.69398,-2.63587 0.51042,-3.49692 -0.97141,-4.5567 -1.0049,-0.71869 -1.81278,-1.84369 -1.79529,-2.5 0.0175,-0.65632 0.65466,-0.37154 1.41592,0.63284 1.33494,1.76126 3.10076,2.43552 6.80228,2.59735 1.21989,0.0533 1.75464,0.90954 1.76531,2.82651 0.0174,3.1165 1.52479,6.04323 2.57282,4.99521 0.38328,-0.38328 0.17141,-1.33001 -0.47081,-2.10385 -0.952,-1.14709 -0.6132,-1.48835 1.83424,-1.84756 4.07051,-0.59742 5.8471,0.53895 4.11169,2.62998 C 268.87376,337.85704 278.28964,338 373.87756,338 464.73955,338 479,337.80452 479,336.55902 c 0,-0.79254 -0.45,-1.7191 -1,-2.05902 -1.60868,-0.99422 -1.21374,-10.07772 0.5,-11.5 0.825,-0.68469 1.5,-1.89693 1.5,-2.69387 0,-5.31184 11.4465,-8.25254 17.83991,-4.58322 2.82701,1.62247 3.20909,1.62415 6.55479,0.0287 3.83398,-1.8283 5.22349,-4.9124 4.29744,-9.5384 -0.29873,-1.49227 -4.37468,-10.70071 -9.05768,-20.46321 l -8.51453,-17.75 -45.30997,0.0331 -45.30996,0.0331 -2.74523,6.07576 c -1.99725,4.42034 -3.15522,5.91843 -4.25,5.49832 -1.48596,-0.57021 -1.94331,0.75196 -1.56938,4.53709 0.142,1.43744 -0.62314,1.60965 -5.35069,1.20425 l -5.51637,-0.47304 -3.91936,7.79575 c -7.84283,15.5997 -7.77885,19.80254 0.35627,23.40109 4.23306,1.87248 4.49476,2.21842 4.49476,5.94145 l 0,3.95321 -39,0 -39,0 0,-3.86414 c 0,-3.65482 0.24223,-3.95665 4.47156,-5.57185 2.45936,-0.93924 5.68766,-3.13787 7.17401,-4.88586 C 318.16155,308.71928 335,275.11433 335,273.05198 c 0,-0.5119 4.29392,-9.62051 9.54206,-20.24136 5.24813,-10.62084 9.49145,-19.31062 9.42961,-19.31062 -0.13085,0 15.87764,-33.36635 23.02941,-48 29.37926,-60.11457 31.92055,-65.6491 32.67646,-71.16402 0.53624,-3.91232 0.2877,-4.57074 -2.94595,-7.80439 C 404.78922,104.58922 402.48,103 401.6,103 c -1.2,0 -1.6,-1 -1.6,-4 l 0,-4 42,0 42,0 0,3.980948 c 0,3.413602 -0.35671,4.070472 -2.50295,4.609152 -1.37662,0.34551 -3.66227,2.00598 -5.07923,3.68994 -2.11393,2.51225 -2.45846,3.68978 -1.91978,6.56123 0.44552,2.37478 61.53996,128.30101 64.94129,133.85523 0.0662,0.10807 2.05665,0.31075 4.42325,0.45039 3.50885,0.20704 5.03712,0.98811 8.28155,4.23253 3.95376,3.95376 5.46114,6.67863 8.83699,15.97449 l 1.76274,4.85391 -3.62193,3.329 -3.62193,3.32899 5.82073,11.81709 c 9.37166,19.02608 12.76117,23.00356 21.92927,25.73328 1.29111,0.38442 1.75,1.57818 1.75,4.55244 l 0,4.03138 -39.28038,0 -39.28037,0 0.16739,5.55369 c 0.0921,3.05452 0.40946,5.79574 0.70531,6.09159 0.29585,0.29585 7.20919,0.94336 15.36298,1.4389 8.15379,0.49554 19.77507,1.35979 25.82507,1.92056 6.05,0.56076 19.4375,1.31028 29.75,1.6656 l 18.75,0.64603 0,-2.63913 c 0,-1.98473 0.62313,-2.79553 2.51299,-3.26986 2.71167,-0.68058 5.48701,0.9456 5.48701,3.21506 0,1.77586 1.5866,1.75126 24.01677,-0.37244 28.66632,-2.71414 79.15949,-2.40987 105.41667,0.63523 10.96339,1.27145 21.684,2.03179 23.82359,1.68966 2.20696,-0.35291 3.65047,-0.23424 3.33621,0.27425 -0.57147,0.92465 5.41919,1.64387 23.15676,2.78015 10.09729,0.64684 10.25,0.62379 10.25,-1.5467 0,-1.93457 0.45741,-2.16546 3.75,-1.89296 3.05132,0.25254 3.68886,0.66428 3.42183,2.20989 -0.31693,1.83443 0.47109,1.88002 23,1.33048 12.83049,-0.31296 25.57817,-1.04456 28.32817,-1.62578 2.75,-0.58121 11.3,-1.8113 19,-2.73354 17.40906,-2.08509 94.07559,-2.28925 139.4723,-0.37141 16.5094,0.69746 34.7624,0.92782 41.5,0.52375 6.6152,-0.39674 16.9777,-0.89646 23.0277,-1.1105 6.05,-0.21404 16.175,-0.81826 22.5,-1.34271 6.325,-0.52445 18.25,-1.25015 26.5,-1.61266 8.25,-0.36251 17.25,-0.83702 20,-1.05446 2.75,-0.21744 6.2375,-0.47882 7.75,-0.58084 1.7163,-0.11576 2.7764,-0.77496 2.8203,-1.75367 0.051,-1.13451 0.3079,-1.01509 0.9297,0.43182 0.692,1.61029 0.8731,1.67329 0.9297,0.32332 0.039,-0.92217 0.8257,-1.82217 1.7489,-2 1.461,-0.2814 1.4934,-0.52088 0.25,-1.84713 -2.2886,-2.44113 -1.9894,-3.54614 1.0221,-3.77561 2.1432,-0.16331 2.9476,0.30237 3.3803,1.95701 0.5037,1.92642 0.7638,2.01178 2.3056,0.75686 1.5368,-1.2508 1.6634,-1.21568 1.0943,0.30352 -0.354,0.94489 -0.2132,1.98395 0.3128,2.30902 0.526,0.32508 0.9632,-0.22301 0.9716,-1.21797 0.01,-1.15428 0.2812,-1.39117 0.75,-0.65451 0.4041,0.63498 1.0722,1.19748 1.4847,1.25 0.4125,0.0525 0.6375,0.43299 0.5,0.84549 -0.1375,0.4125 -0.5125,0.6625 -0.8333,0.55556 -0.3209,-0.10695 -0.5834,0.36544 -0.5834,1.04975 0,1.94499 3.6618,1.7792 3.6985,-0.16746 0.027,-1.45933 0.2488,-1.41707 1.6345,0.31215 1.6028,2 1.6028,2 0.8548,0 -1.7418,-4.65722 -1.7244,-5.30999 0.1373,-5.15415 1.0129,0.0848 1.7383,-0.38074 1.6121,-1.03449 -0.1327,-0.68671 0.5974,-1.02937 1.7289,-0.81147 1.0772,0.20745 2.1819,0.0158 2.4549,-0.42594 0.273,-0.44172 -3.3175,-0.88718 -7.979,-0.98992 -6.3812,-0.14065 -8.4791,0.13475 -8.4906,1.11458 -0.011,0.93595 -0.2875,0.88017 -0.9847,-0.19861 -0.5332,-0.825 -0.9763,-3.19114 -0.9847,-5.2581 -0.014,-3.46063 0.3036,-3.8857 4.0139,-5.37025 2.216,-0.88669 4.466,-2.42846 5,-3.42616 0.6002,-1.12148 0.9573,-26.5584 0.9354,-66.62975 -0.03,-54.30532 -0.2672,-65.22114 -1.4646,-67.31574 -1.8689,-3.26927 -1.8689,-6.44897 0,-8 1.2726,-1.05621 1.5,-5.8154 1.5,-31.39994 0,-33.45402 -2e-4,-33.45492 -6.5031,-35.60108 C 1164.2915,102.94111 1164,102.5179 1164,98.922448 L 1164,95 l 40,0 40,0 0,3.932612 c 0,3.050458 -0.4473,4.074578 -1.9941,4.565508 -2.9866,0.94791 -5.0059,3.35964 -5.0059,5.97869 0,3.16415 3.2767,6.91064 32.3757,37.01808 13.8184,14.29719 30.5243,31.6277 37.1243,38.51225 37.767,39.39522 56.9229,58.99286 57.6632,58.99286 0.4602,0 0.8368,-29.48945 0.8368,-65.53212 0,-73.84452 0.2339,-71.35847 -6.9792,-74.19183 C 1354.2966,102.81311 1354,102.41279 1354,98.84831 L 1354,95 l 35,0 35,0 0,3.75 c 0,3.51098 -0.2951,3.86981 -4.5741,5.62969 -2.9102,1.1969 -4.9067,2.76432 -5.4963,4.3151 -0.5454,1.43469 -0.9259,43.44358 -0.9259,102.23545 0,98.54393 0.025,99.83229 2.0156,102.36251 1.1086,1.40936 3.5836,3.07994 5.5,3.71241 3.1915,1.05329 3.4844,1.47963 3.4844,5.07239 l 0,3.92245 -27,0 c -26.0597,0 -27,0.0676 -27,1.94098 0,2.63101 -2.0478,3.72492 -3.1814,1.69942 -1.2673,-2.26468 -2.3091,-2.05407 -3.5742,0.72259 -0.9797,2.15013 -0.718,2.56457 2.9048,4.6007 3.8039,2.13794 4.6243,2.20556 18.4009,1.51687 9.5133,-0.47557 14.2019,-1.07277 13.7802,-1.7552 -0.3997,-0.64671 -0.1408,-0.72631 0.6907,-0.21237 1.938,1.19777 24.2324,0.69505 25.0105,-0.56397 0.3557,-0.57556 1.8368,-0.83068 3.2914,-0.56692 1.4545,0.26376 2.9004,0.0657 3.213,-0.44016 0.3194,-0.51683 1.5312,-0.28965 2.7662,0.51863 1.2089,0.79109 3.0979,1.27052 4.1979,1.0654 1.1,-0.20512 2.3856,-0.40738 2.857,-0.44946 0.4713,-0.0421 0.5827,-0.86401 0.2475,-1.82651 -0.58,-1.6657 -0.5438,-1.66578 0.7521,-0.002 1.8113,2.32607 9.5869,2.1968 9.7594,-0.16226 0.093,-1.27884 0.2044,-1.24784 0.5726,0.16003 0.3739,1.43008 1.3188,1.67262 5.2207,1.3401 2.6203,-0.2233 5.3168,-0.0645 5.9921,0.35287 1.5957,0.9862 6.2413,0.10091 5.5279,-1.05342 -0.301,-0.48711 0.3792,-0.88565 1.5117,-0.88565 1.1324,0 2.059,0.49814 2.059,1.10699 0,0.60884 0.7168,0.83192 1.5929,0.49573 4.2788,-1.64192 6.7,-1.88563 5.9017,-0.59405 -0.531,0.85917 -0.4107,1.0575 0.3546,0.58455 0.694,-0.42892 0.8978,-1.75292 0.5086,-3.30366 -0.4553,-1.81428 -0.307,-2.37617 0.4964,-1.8797 0.6932,0.42845 1.177,-0.006 1.2247,-1.10084 0.048,-1.10585 0.2794,-1.31007 0.5946,-0.5254 0.2836,0.70599 -0.032,1.94349 -0.7014,2.75 -0.9689,1.16751 -0.9373,1.46326 0.1555,1.45107 2.2063,-0.0246 4.1864,-1.66756 3.4486,-2.86143 -0.4276,-0.69189 -0.104,-0.87928 0.8719,-0.50482 0.8535,0.32755 1.5519,1.02395 1.5519,1.54757 0,0.52361 0.4223,0.691 0.9385,0.37198 0.9463,-0.5848 0.6986,-3.69814 -0.4408,-5.54175 -0.3387,-0.54793 -0.1767,-0.99624 0.3599,-0.99624 0.5367,0 1.2027,0.5625 1.4801,1.25 0.3106,0.76965 0.5347,0.60019 0.5834,-0.44098 0.043,-0.93004 -0.3784,-1.97364 -0.9374,-2.3191 -0.559,-0.34546 -0.7408,-1.07395 -0.404,-1.61886 0.8509,-1.37685 3.3494,2.13684 3.3885,4.76544 0.024,1.63055 0.8014,2.25639 3.2818,2.64274 1.7875,0.27844 3.7,0.0385 4.25,-0.5332 0.6733,-0.69981 0.6286,-0.83174 -0.1367,-0.40375 -0.6252,0.34963 -1.7502,-0.11861 -2.5,-1.04053 -1.21,-1.48776 -1.1384,-1.58556 0.6367,-0.86988 1.1,0.44349 2.5196,0.82774 3.1547,0.8539 0.635,0.0262 0.952,0.57546 0.7045,1.22067 -0.2476,0.64522 0.1675,1.68576 0.9224,2.31232 1.0737,0.89105 1.3715,0.76257 1.3673,-0.58978 0,-0.95095 0.075,-3.25218 0.1728,-5.11385 l 0.1783,-3.38486 2,2.54259 c 2.3912,3.03991 2.5218,3.86461 0.4887,3.0844 -1.0521,-0.40369 -1.3349,-0.12018 -0.9309,0.93285 0.6666,1.73715 4.186,2.93342 4.9575,1.6851 0.2845,-0.46036 0.06,-1.11968 -0.499,-1.46514 -0.559,-0.34546 -1.0163,-1.10666 -1.0163,-1.69154 0,-0.68481 0.5185,-0.63314 1.4562,0.14511 0.8009,0.66469 1.9259,0.91823 2.5,0.56342 0.5996,-0.37056 1.0438,0.25629 1.0438,1.47293 0,1.16492 0.45,1.83992 1,1.5 0.55,-0.33992 1,-0.1556 1,0.4096 0,0.5652 0.7127,0.75413 1.5838,0.41985 0.8712,-0.33428 1.2087,-0.88265 0.75,-1.21861 -2.064,-1.51199 -3.6283,-4.38709 -3.9663,-7.2896 -0.202,-1.73486 -0.4798,-3.2271 -0.6174,-3.31609 -3.9326,-2.54383 -14.0593,-7.37025 -14.9867,-7.14278 -0.6949,0.17041 -0.9063,0.11456 -0.4699,-0.12411 0.4365,-0.23867 -2.7135,-3.01634 -7,-6.17259 -14.9222,-10.98773 -28.45,-27.31289 -35.3189,-42.62223 -8.9468,-19.94071 -11.8369,-40.60845 -9.3931,-67.17141 l 0.573,-6.22796 -4.4627,-2.69558 c -3.0705,-1.8546 -4.7726,-3.70516 -5.4559,-5.93155 C 1437.13,175.81366 1437.6957,171 1439.225,171 c 0.5672,0 0.7142,-1.10623 0.3433,-2.58379 -0.3943,-1.57095 -0.2678,-2.34855 0.3225,-1.98369 0.5341,0.33006 1.265,0.12446 1.6243,-0.45689 0.3592,-0.58134 1.4879,-0.79205 2.5082,-0.46825 1.2675,0.40231 2.2245,-0.10191 3.0222,-1.59234 l 1.1672,-2.18107 2.304,2.88301 c 1.2672,1.58566 2.4975,2.65802 2.7341,2.38302 0.2365,-0.275 2.2845,-4.37522 4.5512,-9.1116 15.8311,-33.08053 48.4707,-55.88356 91.698,-64.063119 10.3943,-1.96683 15.2114,-2.26946 36,-2.261664 22.2554,0.0083 24.9086,0.204259 36.5,2.695197 13.2067,2.838064 20.8669,5.156031 40.734,12.325986 6.7287,2.42836 13.046,4.4152 14.0385,4.4152 0.9926,0 3.5333,-0.88131 5.646,-1.95847 3.5826,-1.82647 4.0517,-1.8516 6.9615,-0.37282 1.716,0.8721 3.2585,1.70446 3.4279,1.84967 0.1693,0.14522 -6.0165,12.90651 -13.7463,28.35844 l -14.0541,28.0944 -3.3975,-1.62013 c -2.7251,-1.29952 -3.5158,-2.36066 -3.9958,-5.36208 -1.8946,-11.84826 -33.3759,-24.67143 -67.2925,-27.41003 -5.5027,-0.44432 -7.5134,-0.24443 -8.6142,0.85642 -1.0188,1.01872 -1.7466,1.12553 -2.5046,0.36753 -1.3846,-1.38458 -4.2029,-0.29811 -4.2029,1.62023 0,0.81726 -1.0905,2.57639 -2.4232,3.90917 -1.3328,1.33279 -2.9791,4.27824 -3.6583,6.54546 -1.2156,4.05708 -2.9185,5.57603 -2.9185,2.60316 0,-1.14985 -0.6684,-1.35928 -2.75,-0.86167 -1.5125,0.36156 -3.5079,1.04514 -4.4343,1.51905 -3.6611,1.87303 -11.0185,0.93813 -16.3655,-2.07955 l -5.2116,-2.94122 -5.885,4.2822 c -13.9449,10.14693 -24.6714,26.12565 -28.9331,43.10024 -2.5581,10.18893 -2.354,29.47308 0.4212,39.78672 3.3093,12.29848 9.4287,23.01588 18.1393,31.76867 8.1696,8.2091 16.6532,14.29895 18.7818,13.48215 0.7376,-0.28305 1.0988,-0.12259 0.8026,0.35658 -1.2032,1.94682 18.0733,8.51127 28.2066,9.60552 3.1205,0.33697 5.8695,0.80849 6.1088,1.04784 0.2394,0.23934 1.1255,-0.12343 1.9691,-0.80616 1.2556,-1.01603 1.3813,-0.98784 0.6924,0.1553 -0.7121,1.18173 1.6047,1.30589 15.0581,0.80694 21.3702,-0.79256 39.293,-4.64252 55.6496,-11.95404 6.1464,-2.74746 6.75,-3.28356 6.75,-5.9947 0,-2.90842 -0.087,-2.95987 -3.75,-2.22067 -8.2231,1.65938 -9.7847,0.68664 -6.2046,-3.86478 1.3752,-1.74818 3.4543,-2.88555 6.027,-3.29694 l 3.9276,-0.62805 0,-16.87219 0,-16.87219 -28.4349,0 c -16.0644,0 -29.5514,0.42448 -31.0012,0.9757 -1.5383,0.58486 -3.4095,2.71138 -4.6714,5.30864 -1.1578,2.38312 -3.0698,4.75655 -4.2488,5.2743 -1.2711,0.55816 -2.2704,2.03847 -2.4548,3.63652 -0.2067,1.79057 -0.7681,2.5198 -1.6727,2.17268 -0.7489,-0.28736 -2.1757,0.29982 -3.1708,1.30484 -1.7513,1.7689 -1.8944,1.74739 -4.4732,-0.67268 -4.6369,-4.35155 -6.7716,-8.8412 -6.1227,-12.87723 0.6765,-4.20807 2.6384,-6.0463 6.5005,-6.09097 1.5125,-0.0175 2.75,-0.4818 2.75,-1.0318 0,-0.55 0.7875,-1.01431 1.75,-1.0318 1.6471,-0.0299 1.6494,-0.10825 0.038,-1.33222 -1.5232,-1.15726 -1.5509,-1.52992 -0.2513,-3.38531 1.1308,-1.61444 1.1785,-2.19925 0.2117,-2.59166 -0.9836,-0.39916 -0.9881,-0.69168 -0.021,-1.37784 1.6906,-1.20002 1.3367,-8.39445 -0.5182,-10.53117 -0.8355,-0.9625 -1.1922,-1.75 -0.7927,-1.75 0.3996,0 -0.01,-0.73302 -0.9025,-1.62894 -1.0135,-1.01355 -1.3443,-2.24135 -0.8756,-3.25 0.4143,-0.89158 0.744,-3.08356 0.7325,-4.87106 -0.014,-2.24299 0.4477,-3.25 1.4913,-3.25 1.0561,0 0.6689,-0.8801 -1.2842,-2.91874 -1.538,-1.60531 -2.4957,-3.40531 -2.1281,-4 1.1514,-1.86305 2.5373,-1.18008 2.2884,1.12775 -0.1535,1.42329 0.3843,2.3386 1.5118,2.57333 1.4846,0.30905 1.75,-0.40516 1.75,-4.70902 l 0,-5.07332 3.8288,0 c 3.5332,0 3.9772,0.32697 5.75,4.2346 1.0567,2.32903 3.0462,4.7974 4.4212,5.48526 1.9099,0.95547 15.6583,1.25414 58.25,1.2654 L 1709,187 l 0,3.90217 c 0,3.41297 -0.3661,4.0298 -2.9201,4.92015 -1.6061,0.55988 -3.8561,1.9539 -5,3.09782 -2.035,2.03497 -2.0799,2.91689 -2.0799,40.85735 0,43.01998 -0.1496,42.0086 6.6307,44.84156 2.8802,1.20342 3.3693,1.89674 3.3693,4.77586 0,3.33229 -0.1567,3.44786 -14.75,10.88096 -20.4134,10.39752 -36.456,16.56615 -60.5129,23.26807 -3.1695,0.883 -5.5139,2.00813 -5.2098,2.5003 0.3042,0.49219 -1.2298,0.71749 -3.409,0.50069 -3.0029,-0.29874 -4.1152,0.004 -4.594,1.25242 -0.5368,1.39888 -0.7661,1.42951 -1.5237,0.20359 -0.4905,-0.79366 -1.2408,-1.09408 -1.6673,-0.66761 -1.6479,1.64797 2.0395,2.4685 4.3348,0.96457 2.7257,-1.78592 3.0533,-1.16218 0.6513,1.23985 -1.5741,1.57414 -1.5741,1.74018 0,2.62112 0.9243,0.51728 1.7161,1.93065 1.7595,3.14082 0.043,1.21017 0.306,1.63781 0.5834,0.95031 0.2774,-0.6875 1.4794,-1.26802 2.671,-1.29004 1.9748,-0.0365 1.9232,-0.17215 -0.5833,-1.53193 -3.1011,-1.68237 -3.3918,-2.65047 -1.3139,-4.37498 1.0764,-0.89332 1.9618,-0.91046 3.5352,-0.0684 1.7335,0.92777 2.004,1.76704 1.5531,4.81939 -0.3649,2.47094 -0.2666,3.05083 0.2969,1.74954 0.7894,-1.82327 0.8892,-1.79163 1.578,0.5 0.458,1.52385 0.9366,1.95506 1.269,1.14345 0.4118,-1.00533 0.8022,-0.93578 1.7091,0.30442 1.4227,1.94565 4.6091,1.01541 4.653,-1.35841 0.024,-1.32161 0.2489,-1.25178 1.1475,0.35699 1.6509,2.95573 1.8519,3.06983 2.7755,1.57532 0.5521,-0.89329 1.4859,-1.09075 2.6957,-0.57 3.7001,1.59277 4.9833,1.80125 12.6009,2.04734 5.3181,0.17181 7.7548,-0.11097 7.7653,-0.90114 0.01,-0.7556 0.298,-0.706 0.8373,0.14428 0.6518,1.02744 9.0879,1.28276 40.7347,1.23286 21.952,-0.0346 41.2627,-0.01 42.9127,0.0552 1.65,0.065 6.375,0.16397 10.5,0.22001 l 7.5,0.10188 0.3385,-2.95286 c 0.3905,-3.40684 1.8103,-5.45287 3.7839,-5.45287 1.9067,0 1.729,3.95427 -0.2774,6.17126 -1.9984,2.20823 -2.8993,2.0898 14.655,1.92644 6.875,-0.064 17,-0.0474 22.5,0.0369 5.5,0.0843 11.5087,0.11725 13.3527,0.0732 5.6754,-0.13542 2.537,1.12368 -8.6533,3.47165 -10.4304,2.18853 -11.9249,2.23436 -59.4494,1.82344 l -48.75,-0.42152 0,21.45928 0,21.45929 -3.5,0 c -2.8333,0 -3.5,-0.38095 -3.5,-2 0,-1.1 -0.9,-2.9 -2,-4 -1.9487,-1.94874 -3.3333,-2 -54.0231,-2 l -52.023,0 0.273,17.75 0.2731,17.75 31.5,0.28906 c 17.325,0.15899 32.9967,0.0197 34.8259,-0.30955 2.5902,-0.46619 3.6439,-1.35971 4.7634,-4.03906 1.1832,-2.83174 1.966,-3.44045 4.4241,-3.44045 l 2.9866,0 0,22 0,22 -3.25,-0.0216 c -2.6762,-0.0178 -3.5148,-0.59164 -4.75,-3.25 l -1.5,-3.22836 -34.7622,-0.26297 -34.7622,-0.26297 0.2622,37.26297 0.2622,37.26297 51,0.28637 c 28.05,0.1575 52.4392,0.029 54.1981,-0.28558 2.5181,-0.45033 3.4646,-1.30868 4.4509,-4.03637 1.0846,-2.99934 1.6957,-3.46442 4.5519,-3.46442 l 3.2991,0 0,19 0,19 -82,0 -82,0 0,-3.5 c 0,-2.4902 0.4459,-3.5 1.5455,-3.5 0.85,0 2.65,-1.10455 4,-2.45455 2.3617,-2.36172 2.4539,-2.95732 2.4392,-15.75 -0.01,-8.95363 -0.3319,-12.8056 -0.9847,-11.79545 -0.6519,1.00878 -0.9744,-3.00288 -0.9847,-12.25 -0.01,-7.5625 0.3794,-13.75 0.8617,-13.75 1.383,0 1.4455,-60.03956 0.066,-63.55838 -0.6342,-1.61789 -1.7082,-7.44162 -2.3867,-12.94162 -0.6785,-5.5 -1.5794,-10.7875 -2.002,-11.75 -0.444,-1.01122 -0.3469,-1.75 0.23,-1.75 0.5492,0 1.7187,1.8 2.5989,4 0.8803,2.2 1.8291,4 2.1086,4 0.2795,0 0.5081,-4.57844 0.5081,-10.17431 l 0,-10.17432 -2.4592,2.3103 -2.4592,2.31029 0.5796,-3.57156 c 0.3188,-1.96435 0.025,-8.09565 -0.652,-13.6251 -1.524,-12.44099 -0.5436,-16.15454 2.0431,-7.73881 1.0178,3.31161 1.5621,7.26455 1.2582,9.13759 -0.2946,1.8156 -0.041,4.13918 0.5629,5.16351 0.8533,1.44656 1.0743,-0.0355 0.9897,-6.63759 -0.1321,-10.31517 -0.8313,-12.37566 -4.795,-14.13016 -2.5178,-1.11449 -3.0681,-1.94201 -3.0681,-4.61395 l 0,-3.25589 74.5657,0 c 72.6533,0 78.4343,-0.22375 78.4343,-3.0357 0,-1.0973 -452.7729,-1.38298 -482.7806,-0.30462 -12.5063,0.44944 -18.1658,1.00177 -17.9175,1.74863 0.2535,0.76213 17.3943,1.27384 56.7806,1.69509 47.258,0.50543 57.554,0.86967 63.4175,2.24355 24.4004,5.71724 37.5,22.3635 37.5,47.65305 0,22.76288 -10.8231,38.3278 -31.25,44.94103 -2.0625,0.66774 -3.75,1.71272 -3.75,2.32217 0,0.60945 1.7617,3.19738 3.9149,5.75096 2.1532,2.55358 4.6519,6.40754 5.5526,8.56436 0.9007,2.15681 3.6578,7.36814 6.1269,11.58072 3.2314,5.51325 4.3234,8.31999 3.8974,10.01752 -1.2905,5.14181 13.7706,24.009 20.6429,25.85952 3.3485,0.90164 3.8653,1.4249 3.8653,3.91344 0,2.82096 -0.1124,2.87873 -6.25,3.21146 -3.4375,0.18635 -17.3875,0.21126 -31,0.0554 l -24.75,-0.28348 0,-2.8687 c 0,-2.28838 0.6069,-3.08026 3,-3.91451 5.2884,-1.84353 6.37,0.12873 -24.9174,-45.43526 L 1271.6653,450 l -20.8327,0 -20.8326,0 0,26.4349 c 0,14.5392 0.4121,27.51892 0.9159,28.84383 0.5037,1.32492 2.3037,2.98381 4,3.68642 2.4354,1.00878 3.0841,1.883 3.0841,4.15617 l 0,2.87868 -17,0 -17,0 0,4.66667 c 0,5.3156 -1.0207,5.14265 -1.9092,-0.3235 -0.844,-5.19207 -2.6861,-5.26107 -3.5201,-0.13184 -0.6526,4.0132 -0.7897,4.16399 -2.134,2.34754 -0.7902,-1.06762 -1.4367,-2.98012 -1.4367,-4.25 0,-2.13196 -0.4214,-2.30887 -5.5,-2.30887 -5.4653,0 -5.5,-0.0193 -5.5,-3.05202 0,-2.50783 0.5476,-3.24293 3.0714,-4.12272 1.6893,-0.58888 3.4547,-2.07891 3.9232,-3.31118 1.2218,-3.21354 1.1916,-140.89413 -0.032,-144.11139 -0.5492,-1.44456 -2.3008,-3.08137 -3.9727,-3.71244 -2.4834,-0.93739 -2.9903,-1.68486 -2.9903,-4.40949 l 0,-3.28076 6.5,0 c 5.1111,0 6.5,-0.32051 6.5,-1.5 0,-1.27083 -2.4444,-1.5 -16,-1.5 l -16,0 0,20.5 0,20.5 -3.3916,0 c -2.7577,0 -3.5056,-0.4542 -4.0015,-2.43007 C 1156.1506,379.76767 1158.4731,380 1101.9286,380 l -51.9286,0 0,18 0,18 33.5455,0 33.5454,0 2.4546,-2.45455 c 1.35,-1.35 2.4545,-3.15 2.4545,-4 0,-1.09956 1.0098,-1.54545 3.5,-1.54545 l 3.5,0 0,22 0,22 -3.25,-0.0227 c -2.6562,-0.0186 -3.5406,-0.61233 -4.8408,-3.25 l -1.5908,-3.22729 -34.6795,-0.26298 -34.6796,-0.26298 0.2704,20.76298 0.2703,20.76298 49.5,0.29244 c 27.225,0.16084 51.4345,0.0175 53.7989,-0.3186 3.6524,-0.51916 4.545,-1.12708 5.9352,-4.04245 1.3778,-2.88931 2.16,-3.43139 4.9511,-3.43139 l 3.3148,0 0,22.5 0,22.5 -3.4022,0 c -2.8825,0 -3.5622,-0.45906 -4.45,-3.00573 -0.612,-1.75568 -2.1354,-3.41924 -3.6629,-4 C 1154.844,516.37041 1128.375,516 1085.4349,516 l -68.4349,0 -0.082,3.25 -0.082,3.25 -1.4213,-3.25 c -1.331,-3.04347 -1.7389,-3.25 -6.4185,-3.25 -4.8807,0 -4.9971,-0.0696 -4.9971,-2.98658 0,-2.45817 0.6087,-3.24092 3.4404,-4.42409 4.6533,-1.94425 4.9975,-4.38226 4.0149,-28.43444 -0.8507,-20.82212 -0.794,-62.46349 0.1303,-95.65489 0.62,-22.26817 0.1485,-25.01918 -4.5953,-26.80975 -2.4834,-0.93739 -2.9903,-1.68486 -2.9903,-4.40949 l 0,-3.28076 5.25,-0.0443 c 2.8875,-0.0244 12.5625,-0.005 21.5,0.0422 14.0754,0.0749 16.25,-0.12176 16.25,-1.46964 0,-1.39987 -10.4101,-1.52963 -103.66683,-1.2922 -81.85609,0.2084 -103.75447,0.52692 -104.08334,1.51393 -0.32005,0.96054 2.8447,1.25 13.66684,1.25 L 867,350 l 0,3.5 c 0,2.68729 -0.41274,3.5 -1.77749,3.5 -0.97763,0 -2.82678,0.73494 -4.10923,1.63321 -1.90813,1.3365 -2.23168,2.24976 -1.78099,5.02702 0.74112,4.567 43.79093,99.64658 44.66005,98.63595 C 905.98097,459.98376 948,364.88629 948,362.69804 948,359.92785 944.80267,357 941.77749,357 940.41274,357 940,356.18729 940,353.5 l 0,-3.5 29.5,0 29.5,0 0,3.5 c 0,2.87654 -0.36996,3.5 -2.07692,3.5 -2.65732,0 -7.92308,5.22653 -7.92308,7.86406 0,1.10985 -0.45,2.29602 -1,2.63594 -0.55,0.33992 -1,1.54192 -1,2.67112 0,2.90521 -6.1486,15.82888 -7.53079,15.82888 -1.64721,0 -3.43227,4.42526 -2.78441,6.90268 0.33705,1.28887 -0.81441,4.91147 -2.97214,9.35065 -1.93729,3.98567 -3.84921,8.37167 -4.2487,9.74667 -0.39949,1.375 -1.59577,3.73443 -2.65839,5.24318 -1.06262,1.50874 -1.65203,3.19624 -1.30979,3.75 0.34224,0.55375 -0.0793,1.00682 -0.93676,1.00682 -0.94573,0 -1.56482,0.88512 -1.57376,2.25 -0.008,1.2375 -0.65026,3.375 -1.42701,4.75 -0.77674,1.375 -2.17138,3.9625 -3.0992,5.75 -0.92781,1.7875 -2.02326,3.25 -2.43432,3.25 -0.41106,0 -0.54803,1.04286 -0.30438,2.31746 0.27268,1.42644 -0.74184,4.32698 -2.63867,7.54401 C 951.38676,450.73607 950,453.51821 950,454.04401 950,454.5698 949.5412,455 948.98044,455 c -0.56075,0 -0.82423,1.07716 -0.5855,2.39369 0.26809,1.47843 -0.52184,3.80043 -2.06593,6.07275 -1.37499,2.02348 -3.17493,5.78382 -3.99987,8.35631 -0.82494,2.57249 -1.75444,5.35225 -2.06556,6.17725 -0.31111,0.825 -0.67966,2.04062 -0.819,2.70139 -0.47497,2.2524 -5.71029,12.79662 -6.65578,13.40509 -0.51831,0.33356 -0.80229,1.23356 -0.63106,2 0.3463,1.55008 -1.04638,5.44477 -5.14694,14.39352 -4.91567,10.72763 -8.0108,18.22567 -8.0108,19.40643 0,0.63599 -0.675,1.41536 -1.5,1.73194 -0.825,0.31659 -1.5,1.61242 -1.5,2.87963 0,3.11006 -3.92823,13.50194 -6.04135,15.982 -0.93725,1.1 -1.91342,2.675 -2.16927,3.5 -0.25586,0.825 2.35359,9.9375 5.79878,20.25 3.44518,10.3125 6.0611,18.75 5.81315,18.75 -0.24795,0 -0.88313,-1.13708 -1.41152,-2.52684 -0.52838,-1.38977 -1.97975,-2.93624 -3.22525,-3.43662 -1.3268,-0.53303 -1.6434,-0.94861 -0.76454,-1.00356 1.2152,-0.076 1.17562,-0.28291 -0.20847,-1.08984 -0.93965,-0.54782 -1.45845,-1.64757 -1.15287,-2.44389 0.30558,-0.79632 -0.14544,-2.14888 -1.00225,-3.0057 -0.85682,-0.85681 -1.83721,-3.00588 -2.17865,-4.7757 -0.34144,-1.76982 -1.9035,-4.73918 -3.47124,-6.59857 l -2.85044,-3.38073 -1.60618,3.84413 c -0.8834,2.11427 -2.21502,4.53559 -2.95917,5.38072 -0.74415,0.84513 -1.66654,3.4491 -2.04976,5.7866 -0.38322,2.3375 -1.1355,4.25 -1.67173,4.25 -0.53622,0 -0.89485,0.7875 -0.79694,1.75 0.36796,3.6174 -0.13686,4.78198 -2.5601,5.90591 -1.37071,0.63576 -2.4922,0.98224 -2.4922,0.76997 z M 318.89284,443.21998 C 314.76755,438.97399 307.9989,431.9 303.8514,427.5 299.7039,423.1 291.60169,414.55 285.84648,408.5 254.31326,375.35159 242,362.17 242,361.56144 c 0,-0.37345 3.7125,1.33462 8.25,3.79572 8.06779,4.37589 14.70332,9.70337 23.08338,18.53297 2.29164,2.41457 5.74162,5.92929 7.66662,7.81049 11.96214,11.68994 14,13.86718 14,14.9575 0,0.66669 1.77518,2.47886 3.94485,4.02703 2.16966,1.54817 5.13309,4.68492 6.5854,6.97055 1.45231,2.28564 3.461,4.37025 4.46375,4.63248 1.00275,0.26223 3.19747,2.44216 4.87715,4.8443 1.67967,2.40213 3.85382,5.49252 4.83142,6.86752 0.97761,1.375 1.65017,3.06058 1.49459,3.74574 -0.15558,0.68516 1.27635,1.98928 3.18207,2.89806 1.90572,0.90877 3.68288,2.48569 3.94924,3.50426 C 328.59483,445.16663 329.30489,446 329.90638,446 330.68053,446 331,433.71772 331,403.95455 l 0,-42.04546 -2.45455,-2.45454 c -1.35,-1.35 -3.15,-2.45455 -4,-2.45455 C 323.44589,357 323,355.9902 323,353.5 l 0,-3.5 13.25,-0.0703 c 8.33397,-0.0442 12.50796,-0.38915 11.25,-0.92971 -2.30799,-0.99178 -62.48661,-1.01771 -118.5,-0.0511 l -38.5,0.66441 27.25,0.19332 L 245,350 l 0,3.43261 c 0,2.55436 -0.51171,3.59503 -2,4.06739 -4.14457,1.31544 -2.4687,5.37555 5.75053,13.93173 44.80351,46.64029 58.17334,60.58056 66.74223,69.5899 5.50398,5.78689 10.20825,10.38588 10.45393,10.21997 0.24568,-0.16591 -2.92855,-3.77564 -7.05385,-8.02162 z m 974.42226,-23.84969 4.5942,-0.62971 -4.11,-7.4886 c -3.3146,-6.03948 -3.7172,-7.27841 -2.0804,-6.40242 1.1162,0.5974 3.544,4.00714 5.395,7.57721 3.046,5.87496 3.6037,6.43401 5.8758,5.89023 4.3317,-1.03671 9.9218,-4.25183 11.4403,-6.57986 3.9627,-6.07528 3.8993,-18.05732 -0.1249,-23.6053 -1.05,-1.44751 -4.1357,-3.75684 -6.8571,-5.13184 l -4.948,-2.5 -36,0 -36,0 -0.2734,18.46783 c -0.1504,10.1573 -0.052,19.0448 0.2186,19.75 0.3845,1.00196 6.8062,1.28217 29.3838,1.28217 15.8905,0 30.9593,-0.28337 33.4861,-0.62971 z M 1060,348.43358 c 0,-1.11013 -0.7786,-1.47425 -2.6729,-1.25 -3.8931,0.46088 -4.2364,2.81642 -0.4104,2.81642 2.1321,0 3.0833,-0.48321 3.0833,-1.56642 z m 94.5589,0.0982 c 1.718,-1.29945 -2.3976,-1.47185 -35.8089,-1.5 -32.903,-0.0277 -37.75,0.1608 -37.75,1.4682 0,2.22928 70.6132,2.25981 73.5589,0.0318 z m 512.6911,-5.27831 c -6.1875,-0.17544 -16.3125,-0.17544 -22.5,0 -6.1875,0.17545 -1.125,0.319 11.25,0.319 12.375,0 17.4375,-0.14355 11.25,-0.319 z M 1332,341.0473 1319.5,340.5 1339,339.18014 c 19.8603,-1.34426 24,-1.87394 24,-3.07086 C 1363,334.26377 1353.4758,326 1351.3488,326 1350.057,326 1349,325.40104 1349,324.66898 c 0,-0.73206 -1.1578,-1.95068 -2.573,-2.70804 -1.4151,-0.75737 -4.6519,-4.20841 -7.1929,-7.66898 -2.5409,-3.46058 -4.9268,-6.29196 -5.302,-6.29196 -0.3751,0 -0.6821,-1.06875 -0.6821,-2.375 0,-2.24555 0.2093,-2.16565 3.841,1.46598 2.1125,2.11254 4.963,5.61846 6.3345,7.79094 3.1,4.91086 4.5728,5.87252 5.7559,3.75848 0.5049,-0.90222 1.5441,-1.6404 2.3093,-1.6404 2.205,0 2.8401,-1.97205 1.2279,-3.81301 -2.4395,-2.78553 -4.7186,-7.92353 -4.7186,-10.63733 0,-1.50233 -0.5674,-2.54966 -1.3813,-2.54966 -0.7597,0 -2.5826,-1.575 -4.0509,-3.5 -1.4683,-1.925 -3.3217,-3.5 -4.1187,-3.5 -0.797,0 -1.4491,-0.82758 -1.4491,-1.83906 0,-1.01149 -2.1375,-3.84041 -4.75,-6.2865 -2.6125,-2.44609 -13.7311,-13.82509 -24.7081,-25.28666 -11.8129,-12.33444 -20.1395,-20.29491 -20.4027,-19.5055 -0.2445,0.73355 -2.8508,4.8878 -5.7919,9.23167 -2.941,4.34387 -5.3473,8.05271 -5.3473,8.24187 0,0.18915 -1.35,2.34424 -3,4.78907 -1.65,2.44484 -3,4.74954 -3,5.12156 0,0.77662 -2.6121,3.53355 -3.348,3.53355 -0.2699,0 -0.054,-1.58105 0.4793,-3.51344 0.5336,-1.93238 0.7466,-3.87511 0.4734,-4.31717 -0.5563,-0.90014 1.623,-7.84157 4.1347,-13.16939 0.9074,-1.925 1.8398,-6.3125 2.0718,-9.75 0.3279,-4.85883 0.7744,-6.25 2.0059,-6.25 0.875,0 -4.0079,-5.70694 -10.9092,-12.75 -16.1084,-16.43949 -23.6128,-25.25 -21.5068,-25.25 0.8794,0 1.5989,-0.29661 1.5989,-0.65914 0,-0.73291 -20.0511,-21.64266 -21.2701,-22.18088 -0.4235,-0.18701 -0.6485,30.92843 -0.5,69.14542 0.2609,67.1252 0.3359,69.55812 2.207,71.62529 1.0653,1.17691 2.5278,1.9131 3.25,1.63596 0.7222,-0.27713 1.3166,-0.1805 1.3209,0.21473 0.011,1.0498 5.1253,3.25441 6.1212,2.63889 0.4665,-0.28828 0.5551,0.2393 0.1971,1.1724 -0.4095,1.06717 0.037,2.19936 1.2025,3.05194 1.0195,0.74546 1.3442,1.35539 0.7215,1.35539 -0.6226,0 -1.4102,-0.45 -1.7501,-1 -1.2729,-2.05959 -2.2032,-0.8805 -2.1033,2.66583 0.057,2.01621 0.6661,3.85381 1.354,4.08356 0.7194,0.2403 1.033,-0.14958 0.7381,-0.91789 -0.2819,-0.73459 0.3928,-1.901 1.4994,-2.59203 1.1065,-0.69103 2.0405,-0.9151 2.0756,-0.49794 0.4681,5.56116 0.9,7.50992 1.943,8.76669 2.4765,2.98399 -2.405,1.6065 -5.3448,-1.50822 -1.5573,-1.65 -3.2434,-3 -3.7468,-3 -1.7018,0 -0.9291,4.98606 1.0848,7 2,2 2,2 2.0304,-0.25 0.027,-2.02657 0.1328,-2.07414 1.0615,-0.47897 0.567,0.97407 1.4534,1.51001 1.9696,1.19099 0.5162,-0.31903 0.9385,-0.1035 0.9385,0.47896 0,0.58246 0.4766,1.05902 1.059,1.05902 0.5825,0 0.7809,-0.45 0.441,-1 -0.3399,-0.55 -0.1415,-1 0.441,-1 0.5824,0 1.059,0.47656 1.059,1.05902 0,0.58246 0.5003,0.7498 1.1118,0.37188 0.6115,-0.37792 1.4493,-0.1411 1.8617,0.52626 0.5033,0.81431 5.3178,1.38082 14.6382,1.72244 7.6386,0.27997 14.0758,0.6916 14.305,0.91472 0.2291,0.22312 15.9791,0.31447 35,0.20298 21.5815,-0.12649 29.8839,-0.40846 22.0833,-0.75 z m -19.75,-1.2973 c 0.2292,-0.6875 1.2417,-1.25 2.25,-1.25 1.0083,0 2.0208,0.5625 2.25,1.25 0.2639,0.79167 -0.5611,1.25 -2.25,1.25 -1.6889,0 -2.5139,-0.45833 -2.25,-1.25 z m -68.1727,-5.37612 c -1.9484,-2.24087 -2.1161,-2.99334 -1.1429,-5.12923 0.6273,-1.37671 1.4128,-2.23083 1.7455,-1.89804 0.3328,0.33278 0.01,1.32523 -0.7231,2.20544 -0.7839,0.9446 -0.9448,1.87647 -0.3925,2.27417 0.9897,0.71265 3.6838,5.17378 3.1245,5.17378 -0.1805,0 -1.3557,-1.18176 -2.6115,-2.62612 z M 1248.5,336 c -0.3399,-0.55 -0.1415,-1 0.441,-1 0.5824,0 1.059,0.45 1.059,1 0,0.55 -0.1984,1 -0.441,1 -0.2425,0 -0.7191,-0.45 -1.059,-1 z m -15.5,-3 c 0,-0.55 0.1984,-1 0.441,-1 0.2425,0 0.7191,0.45 1.059,1 0.3399,0.55 0.1415,1 -0.441,1 -0.5824,0 -1.059,-0.45 -1.059,-1 z m 94,-9.5 c 0,-0.825 0.675,-1.5 1.5,-1.5 0.825,0 1.5,0.675 1.5,1.5 0,0.825 -0.675,1.5 -1.5,1.5 -0.825,0 -1.5,-0.675 -1.5,-1.5 z m -89.3616,-8 c -0.3569,-0.92992 0,-1.5 0.952,-1.5 0.8402,0 1.2733,0.41157 0.9624,0.91459 -0.3109,0.50302 0,1.1425 0.691,1.42105 0.8007,0.32282 0.6604,0.53509 -0.3868,0.58541 -0.9037,0.0434 -1.902,-0.59605 -2.2186,-1.42105 z M 1230,313.55902 c 0,-1.05548 1.9191,-1.49891 2.4899,-0.57533 0.3455,0.55897 -0.073,1.01631 -0.9309,1.01631 -0.8574,0 -1.559,-0.19844 -1.559,-0.44098 z m -2.3765,-6.09768 c -0.9649,-2.51469 -0.6803,-3.16355 0.4986,-1.13634 0.5837,1.00375 0.8506,2.03566 0.5931,2.29313 -0.2575,0.25747 -0.7487,-0.26309 -1.0917,-1.15679 z m 22.1077,-5.38118 c -0.435,-1.66335 -0.3048,-2.05378 0.4372,-1.31171 0.5812,0.5811 0.8598,1.64682 0.6194,2.36826 -0.2497,0.74895 -0.703,0.29565 -1.0566,-1.05655 z m 78.3183,-5.25739 c -2.0351,-2.18442 -2.1074,-3.59463 -0.1214,-2.36721 1.1963,0.73934 3.4118,4.54444 2.646,4.54444 -0.2729,0 -1.409,-0.97975 -2.5246,-2.17723 z m -72.6886,-5.87716 c 0.336,-1.67991 1.5211,-4.94241 2.6336,-7.25 1.1746,-2.4365 1.7994,-3.14743 1.49,-1.69561 -0.2929,1.375 -0.8155,3.85 -1.1612,5.5 l -0.6286,3 2.3245,-2 c 2.6525,-2.28212 1.8171,-0.25948 -1.3423,3.25 -2.8049,3.11573 -4.0401,2.81609 -3.316,-0.80439 z M 1321,278 c 0,-0.55 0.45,-1 1,-1 0.55,0 1,0.45 1,1 0,0.55 -0.45,1 -1,1 -0.55,0 -1,-0.45 -1,-1 z m -26.0824,-24.11573 c -2.2126,-3.10727 -2.2128,-3.11264 -0.091,-1.97708 2.3722,1.26958 4.8321,5.09281 3.2767,5.09281 -0.5319,0 -1.9655,-1.40208 -3.1857,-3.11573 z m 66.8022,87.37946 c -2.6291,-0.20668 -6.6791,-0.20418 -9,0.006 -2.3209,0.20972 -0.1698,0.37882 4.7802,0.37577 4.95,-0.003 6.8489,-0.17464 4.2198,-0.38131 z M 248.59549,336.84549 c 0.44208,-0.7153 0.27432,-0.88306 -0.44098,-0.44098 C 247.51953,336.79695 247,336.61492 247,336 c 0,-0.61492 -0.45,-0.83992 -1,-0.5 -0.55,0.33992 -1,1.04148 -1,1.55902 0,1.33314 2.74017,1.17041 3.59549,-0.21353 z m 9.65337,-1.00186 c -0.3613,-1.38159 -0.18152,-1.92004 0.50036,-1.49862 0.67543,0.41744 0.86673,-0.0976 0.52361,-1.40972 -0.56231,-2.15028 -2.22994,-1.39674 -2.62025,1.18401 -0.11485,0.75939 -0.56022,1.9432 -0.98972,2.6307 -0.52531,0.84088 -0.13763,1.25 1.1845,1.25 1.52058,0 1.83777,-0.48804 1.4015,-2.15637 z m 971.17974,-0.18162 c 0.8132,-1.30475 0.71,-1.94935 -0.4286,-2.67516 -1.2343,-0.78683 -1.249,-0.95894 -0.083,-0.97154 0.7791,-0.008 1.0798,-0.3521 0.6682,-0.76374 -0.9957,-0.99573 -3.5849,2.63203 -3.5849,5.02289 0,2.20394 1.8827,1.86764 3.4286,-0.61245 z m -8.1793,-2.13814 C 1220.984,332.13574 1220.3804,331 1219.9082,331 c -0.4723,0 -0.4486,1.07873 0.053,2.39718 0.5013,1.31844 0.6026,2.74059 0.2253,3.16032 -0.3774,0.41973 -0.184,0.47674 0.4297,0.12669 0.6137,-0.35005 0.8988,-1.7722 0.6334,-3.16032 z m -55.4641,1.55737 c 0.1568,-0.0447 -0.2,-0.9877 -0.7929,-2.09559 -1.0391,-1.94156 -1.1631,-1.9506 -3.4321,-0.25 -1.2948,0.97039 -2.2084,2.00565 -2.0303,2.30057 0.2537,0.41994 4.8237,0.45284 6.2553,0.045 z M 1184.9663,333 c 0.4509,0 1.0897,0.70352 1.4196,1.56338 0.33,0.85986 1.0499,1.28533 1.5997,0.94549 1.3835,-0.85503 -4.0336,-5.70443 -5.6705,-5.07629 -0.7233,0.27756 -1.3151,0.065 -1.3151,-0.47244 0,-0.56897 -0.7792,-0.49048 -1.8654,0.1879 -1.1467,0.71608 -1.6747,1.89443 -1.3705,3.05796 0.4775,1.82577 0.5628,1.82022 2.4044,-0.15652 2.4483,-2.62791 4.2723,-2.74166 2.9019,-0.18096 -0.55,1.02768 -0.6784,2.19305 -0.2852,2.58971 0.3931,0.39666 0.8603,0.006 1.0381,-0.86852 0.1779,-0.87434 0.6922,-1.58971 1.143,-1.58971 z m 25.2212,1.31689 c -0.7219,-0.28887 -1.5844,-0.25335 -1.9167,0.0789 -0.3323,0.33229 0.2584,0.56864 1.3125,0.52522 1.165,-0.048 1.4019,-0.28494 0.6042,-0.60416 z M 1617.3616,333.5 c -0.3166,-0.825 -0.7524,-1.5 -0.9686,-1.5 -0.2161,0 -0.393,0.675 -0.393,1.5 0,0.825 0.4359,1.5 0.9686,1.5 0.5328,0 0.7096,-0.675 0.393,-1.5 z M 1218,332 c 0,-1.1 -0.1725,-2 -0.3834,-2 -0.2108,0 -0.6187,0.9 -0.9063,2 -0.2877,1.1 -0.1152,2 0.3833,2 0.4985,0 0.9064,-0.9 0.9064,-2 z m 269.0854,0.55279 c 0.503,0.31088 0.9146,0.11524 0.9146,-0.43476 0,-1.51479 -1.4347,-2.08547 -2.9259,-1.16385 -0.7984,0.49345 -1.006,1.34704 -0.5191,2.13476 0.6083,0.98423 0.9118,1.01063 1.2135,0.10558 0.2213,-0.66384 0.8139,-0.95262 1.3169,-0.64173 z m 28.3311,-0.90966 C 1514.7736,329.96771 1513,329.34889 1513,330.8 c 0,0.97287 2.231,3.30238 2.7069,2.82646 0.1871,-0.18711 0.056,-1.07961 -0.2904,-1.98333 z m 24.8897,1.62948 c -0.6566,-0.221 -0.9336,-1.16025 -0.6155,-2.08722 0.4478,-1.30497 0.1927,-1.23396 -1.1303,0.31461 -0.9398,1.1 -1.4238,1.4375 -1.0755,0.75 0.3482,-0.6875 0.044,-1.25689 -0.6759,-1.26531 -1.0275,-0.012 -1.0126,-0.20305 0.069,-0.8882 0.758,-0.48009 1.0689,-1.37319 0.691,-1.98469 -1.342,-2.17142 -2.5691,-1.06269 -2.5691,2.32132 0,3.22626 0.1958,3.42734 3.25,3.33721 1.7875,-0.0527 2.7128,-0.27672 2.0562,-0.49772 z M 151.25,331.27976 c -0.6875,-0.24553 -1.25,-1.05737 -1.25,-1.80408 0,-0.7467 -0.51953,-1.67873 -1.15451,-2.07117 -0.7153,-0.44208 -0.88306,-0.27432 -0.44098,0.44098 C 148.79695,328.48047 148.64148,329 148.05902,329 147.47656,329 147,328.325 147,327.5 c 0,-0.98884 -0.93713,-1.4731 -2.75,-1.42105 -1.5125,0.0434 -2.22201,0.29441 -1.5767,0.55777 0.65394,0.26686 0.98356,1.67054 0.74465,3.17105 -0.34984,2.19721 -0.23894,2.37809 0.60314,0.98376 1.09964,-1.82078 3.42798,-1.44249 5.84796,0.95014 0.75297,0.74446 1.65297,1.04553 2,0.66904 0.34702,-0.37648 0.0685,-0.88541 -0.61905,-1.13095 z m 89.4844,-1.97394 c -0.93882,-0.93881 -1.73193,-1.11883 -2.12527,-0.4824 -0.34513,0.55844 0.14403,1.78689 1.08704,2.72989 1.22788,1.22788 1.83112,1.36481 2.12526,0.4824 0.22589,-0.67767 -0.26327,-1.90612 -1.08703,-2.72989 z M 1190,332 c 0,-0.55 -0.45,-1 -1,-1 -0.55,0 -1,0.45 -1,1 0,0.55 0.45,1 1,1 0.55,0 1,-0.45 1,-1 z m 22,0.45578 c 0,-0.11599 -0.675,-0.77109 -1.5,-1.45578 -1.2165,-1.00961 -1.5,-0.96975 -1.5,0.21089 0,0.80068 0.675,1.45578 1.5,1.45578 0.825,0 1.5,-0.0949 1.5,-0.21089 z M 1587,332 c 0,-0.55 -0.4766,-1 -1.059,-1 -0.5825,0 -0.7809,0.45 -0.441,1 0.3399,0.55 0.8165,1 1.059,1 0.2426,0 0.441,-0.45 0.441,-1 z m 9.6042,-1.72917 c -0.3323,-0.33229 -0.5687,0.25834 -0.5253,1.3125 0.048,1.16495 0.285,1.4019 0.6042,0.60417 0.2889,-0.72188 0.2534,-1.58438 -0.079,-1.91667 z m 33,0 c -0.3323,-0.33229 -0.5687,0.25834 -0.5253,1.3125 0.048,1.16495 0.285,1.4019 0.6042,0.60417 0.2889,-0.72188 0.2534,-1.58438 -0.079,-1.91667 z m -414.2591,0.18604 c -0.3257,-0.84872 -0.8066,-1.32866 -1.0688,-1.06653 -0.2621,0.26213 -0.18,0.95654 0.1826,1.54313 0.986,1.59546 1.5624,1.28551 0.8862,-0.4766 z m 281.0737,-0.808 c -0.3456,-0.90056 -0.9949,-1.41083 -1.443,-1.13394 -0.448,0.2769 -1.5258,-0.20783 -2.3952,-1.07717 -1.4408,-1.44082 -1.5806,-1.39742 -1.5806,0.49081 0,1.54286 0.6379,2.07143 2.5,2.07143 1.375,0 2.5,0.525 2.5,1.16667 0,0.64166 0.2356,0.93107 0.5235,0.64312 0.288,-0.28794 0.2408,-1.26036 -0.1047,-2.16092 z m 31.1854,-0.37804 c -0.3323,-0.33229 -0.5687,0.25834 -0.5253,1.3125 0.048,1.16495 0.285,1.4019 0.6042,0.60417 0.2889,-0.72188 0.2534,-1.58438 -0.079,-1.91667 z m 19.6378,1.86602 c 0.2663,0.74973 0.8766,0.99487 1.3562,0.54476 0.8937,-0.83879 -3.2969,-4.64369 -5.0982,-4.62897 -0.55,0.005 -0.2312,0.45639 0.7085,1.00422 1.0151,0.59183 1.4841,1.69548 1.1556,2.71959 -0.4256,1.32696 -0.3288,1.40988 0.4205,0.3604 0.8217,-1.15087 1.0487,-1.15087 1.4574,0 z M 1563,329.94098 c 0,-0.51754 -0.45,-0.94098 -1,-0.94098 -0.55,0 -1,0.70156 -1,1.55902 0,0.85746 0.45,1.2809 1,0.94098 0.55,-0.33992 1,-1.04148 1,-1.55902 z M 1581.5,331 c -0.3399,-0.55 -0.8165,-1 -1.059,-1 -0.2426,0 -0.441,0.45 -0.441,1 0,0.55 0.4766,1 1.059,1 0.5825,0 0.7809,-0.45 0.441,-1 z m 46.1042,-1.72917 c -1.0165,-1.01651 -1.8553,0.51389 -1.0213,1.86338 0.6301,1.01942 0.8656,1.02021 1.2044,0.004 0.2315,-0.69479 0.1492,-1.53513 -0.1831,-1.86742 z M 1205.9847,328.75 c -0.012,-1.81944 -0.2008,-1.96296 -0.9847,-0.75 -1.2529,1.93876 -1.2529,3 0,3 0.55,0 0.9931,-1.0125 0.9847,-2.25 z m 6.4585,0 c -0.9306,-3.0273 -1.287,-3.3062 -2.5768,-2.01635 -0.8005,0.80041 -0.7278,1.5214 0.2666,2.64529 1.9965,2.25641 3.1044,1.95479 2.3102,-0.62894 z m -985.23494,0.57381 c -0.96904,-0.38882 -1.01086,-0.85673 -0.16742,-1.87302 0.61837,-0.74509 0.97465,-2.00847 0.79174,-2.80751 -0.19925,-0.87036 -1.02569,-0.0878 -2.06142,1.95196 -1.71342,3.37439 -1.70895,3.40406 0.5,3.32581 1.22586,-0.0434 1.64756,-0.31218 0.9371,-0.59724 z M 1222,328.39235 c 0,-1.74799 -1.4964,-2.52283 -3.4353,-1.77881 -1.1391,0.43711 -1.3179,0.97892 -0.6061,1.83658 1.3289,1.60128 4.0414,1.56251 4.0414,-0.0578 z m 6,1.18944 c 0,-0.23002 0.2731,-1.13002 0.607,-2 0.3921,-1.02172 0.06,-1.58179 -0.9379,-1.58179 -0.9284,0 -1.4847,0.79807 -1.3941,2 0.083,1.1 0.5048,2 0.9378,2 0.433,0 0.7872,-0.1882 0.7872,-0.41821 z m 131.8466,-3.41259 c -2.699,-0.44236 -3.4109,0.44596 -1.8575,2.31772 1.1379,1.37108 1.4133,1.34692 2.575,-0.22583 1.1231,-1.52038 1.025,-1.8063 -0.7175,-2.09189 z m -167.2424,0.10163 c -0.3323,-0.33229 -0.5687,0.25834 -0.5253,1.3125 0.048,1.16495 0.285,1.4019 0.6042,0.60417 0.2889,-0.72188 0.2534,-1.58438 -0.079,-1.91667 z M 1534,327 c 0,-1.1 -0.4079,-2 -0.9064,-2 -0.4985,0 -0.671,0.9 -0.3833,2 0.2876,1.1 0.6955,2 0.9063,2 0.2109,0 0.3834,-0.9 0.3834,-2 z M 234.60417,325.27083 c -0.3323,-0.33229 -0.56864,0.25834 -0.52522,1.3125 0.048,1.16495 0.28494,1.4019 0.60416,0.60417 0.28887,-0.72188 0.25335,-1.58438 -0.0789,-1.91667 z M 1190,327 c 0,-0.55 -0.9266,-1 -2.059,-1 -1.1325,0 -1.7809,0.45 -1.441,1 0.3399,0.55 1.2665,1 2.059,1 0.7926,0 1.441,-0.45 1.441,-1 z m 25.397,-0.16667 C 1215.1137,326.375 1214.4585,326 1213.941,326 c -0.5176,0 -0.941,0.375 -0.941,0.83333 0,0.45834 0.6552,0.83334 1.456,0.83334 0.8008,0 1.2243,-0.375 0.941,-0.83334 z m 313.5877,0.41667 c -0.01,-0.4125 -0.4584,-1.425 -1,-2.25 -0.8653,-1.31811 -1.0996,-1.32131 -1.9319,-0.0264 -0.6316,0.98258 -0.5483,1.72721 0.25,2.23468 1.5383,0.97793 2.7014,0.99602 2.6819,0.0417 z M 219.60417,324.27083 c -0.3323,-0.33229 -0.56864,0.25834 -0.52522,1.3125 0.048,1.16495 0.28494,1.4019 0.60416,0.60417 0.28887,-0.72188 0.25335,-1.58438 -0.0789,-1.91667 z m 1303.74173,1.18828 c -0.3591,-0.93581 -0.1013,-1.42667 0.6564,-1.25 2.8867,0.67301 1.7516,-1.95606 -1.5176,-3.51501 -3.7676,-1.79663 -8.1875,-2.42549 -5.6215,-0.79984 0.9169,0.58097 0.9937,0.98679 0.2343,1.23989 -0.7543,0.25144 -0.5673,1.17783 0.5637,2.79249 1.6023,2.28771 1.7324,2.31403 2.4453,0.49479 0.6146,-1.56845 0.7658,-1.61525 0.8232,-0.25476 0.059,1.39289 0.6582,1.98494 2.7889,2.75438 0.1203,0.0434 -0.047,-0.61445 -0.3727,-1.46194 z M 214,324.44098 c 0,-0.85746 -0.45734,-1.27636 -1.01631,-0.9309 -0.55897,0.34546 -0.75742,1.04702 -0.44098,1.55902 0.85723,1.38704 1.45729,1.12841 1.45729,-0.62812 z m 10.1125,-2.72848 C 223.29583,320.89583 223,321.00774 223,322.13333 c 0,1.98786 1.3447,3.33256 1.84167,1.84167 0.21083,-0.6325 -0.1173,-1.65063 -0.72917,-2.2625 z M 1530,323.5 c -0.6847,-0.825 -1.6949,-1.5 -2.2449,-1.5 -0.5578,0 -0.4495,0.66326 0.2449,1.5 0.6847,0.825 1.6949,1.5 2.2449,1.5 0.5578,0 0.4495,-0.66326 -0.2449,-1.5 z M 215.00914,321.51101 c -0.67967,-0.81894 -1.7174,-1.19132 -2.30607,-0.8275 -0.64782,0.40038 -0.30703,0.9604 0.86331,1.41871 2.75972,1.08071 2.81241,1.05912 1.44276,-0.59121 z M 208,320 c 0,-0.55 -0.45,-1 -1,-1 -0.55,0 -1,0.45 -1,1 0,0.55 0.45,1 1,1 0.55,0 1,-0.45 1,-1 z m 31.5504,0 c 0.21276,0 0.12781,-0.675 -0.18877,-1.5 -0.31659,-0.825 -1.02561,-1.5 -1.57561,-1.5 -0.55,0 -0.74098,0.675 -0.42439,1.5 0.31658,0.825 0.13972,1.5 -0.39301,1.5 C 236.43588,320 236,319.12656 236,318.05902 c 0,-1.06754 -0.45,-2.2191 -1,-2.55902 -0.55,-0.33992 -1,-0.17828 -1,0.3592 0,0.53747 -0.26745,1.80153 -0.59433,2.80901 -0.43686,1.34644 -0.34125,1.47837 0.36083,0.49794 0.77033,-1.07572 1.08049,-1.00726 1.60277,0.35376 0.39507,1.02955 1.26109,1.45218 2.22095,1.08384 C 238.45556,320.27169 239.33765,320 239.5504,320 z m -18.18877,-1.5 c -0.31659,-0.825 -0.75246,-1.5 -0.96862,-1.5 -0.21615,0 -0.39301,0.675 -0.39301,1.5 0,0.825 0.43588,1.5 0.96862,1.5 0.53273,0 0.70959,-0.675 0.39301,-1.5 z M 214,317.60699 c 0,-1.50158 -2.4273,-2.84635 -3.39356,-1.8801 -0.70522,0.70522 1.26869,3.27311 2.516,3.27311 C 213.6051,319 214,318.37314 214,317.60699 z m 7.66689,-4.27343 c -0.37815,-0.37816 -1.34359,0.17959 -2.14542,1.23944 -2.19603,2.9027 -1.80943,3.77318 0.65576,1.47652 1.19747,-1.11562 1.86782,-2.3378 1.48966,-2.71596 z m -14.20188,-1.54122 c -0.11384,-1.26079 -0.68762,-2.18898 -1.27506,-2.06265 -0.58744,0.12632 -1.35082,-0.66118 -1.6964,-1.75 C 203.84707,305.9428 202,305.21711 202,307 c 0,0.55 0.36601,1 0.81335,1 0.44735,0 1.42333,1.5546 2.16886,3.45466 1.48312,3.77991 2.80991,3.96036 2.4828,0.33768 z M 204.5,313 c -0.33992,-0.55 -0.81648,-1 -1.05902,-1 -0.24254,0 -0.44098,0.45 -0.44098,1 0,0.55 0.47656,1 1.05902,1 0.58246,0 0.7809,-0.45 0.44098,-1 z m 29.0628,-0.22947 c 0.37141,-0.37141 -0.0211,-1.37172 -0.87232,-2.22291 -1.61282,-1.61281 -3.77708,-2.09608 -3.57206,-0.79762 0.39215,2.48359 -0.2914,3.43803 -2.1198,2.95989 -1.10076,-0.28785 -1.7654,-0.14155 -1.47698,0.32512 0.59855,0.96848 7.01938,0.7573 8.04116,-0.26448 z M 236.5,313 c -0.33992,-0.55 -0.81648,-1 -1.05902,-1 -0.24254,0 -0.44098,0.45 -0.44098,1 0,0.55 0.47656,1 1.05902,1 0.58246,0 0.7809,-0.45 0.44098,-1 z m -58.3,-2.2 c -0.66,-0.66 -1.2,-2.085 -1.2,-3.16667 0,-1.08166 -0.27904,-1.68762 -0.6201,-1.34657 -0.98614,0.98614 0.53556,5.71324 1.83915,5.71324 0.89735,0 0.89277,-0.28818 -0.0191,-1.2 z M 227,309 c 0,-0.55 -0.47656,-1 -1.05902,-1 -0.58246,0 -0.7809,0.45 -0.44098,1 0.33992,0.55 0.81648,1 1.05902,1 0.24254,0 0.44098,-0.45 0.44098,-1 z m -29.0438,-3.52707 c 0.57409,0.35481 1.0438,0.16855 1.0438,-0.41391 0,-1.70636 -3.72621,-1.2149 -4.4159,0.58242 -0.51929,1.35323 -0.37018,1.42591 0.8492,0.41391 0.8135,-0.67514 1.9488,-0.93723 2.5229,-0.58242 z m 1074.0347,-82.48317 c -6.2376,-7.03569 -7.9909,-8.67065 -7.9909,-7.45155 0,0.72985 13.0723,14.46179 13.767,14.46179 0.2415,0 -2.3578,-3.15461 -5.7761,-7.01024 z M 466,224.04646 C 466,223.246 449.05157,178.94877 443.50655,165.25649 441.41111,160.08224 440,160.60641 440,166.55902 c 0,2.44254 -0.3375,4.44144 -0.75,4.442 -1.21646,0.002 -5.85201,9.11355 -7.21291,14.17812 -0.69153,2.57353 -2.32589,5.683 -3.6319,6.90993 -1.30601,1.22694 -2.63658,3.84632 -2.95682,5.82086 -0.32023,1.97454 -1.22746,5.16507 -2.01607,7.09007 -0.7886,1.925 -1.55713,4.40423 -1.70784,5.50941 -0.15071,1.10517 -1.05037,3.1178 -1.99924,4.47251 -0.94887,1.3547 -1.72522,2.98286 -1.72522,3.61814 0,0.63528 -0.675,1.71525 -1.5,2.39994 -0.825,0.68469 -1.5,1.86479 -1.5,2.62244 0,1.13406 4.50737,1.37756 25.5,1.37756 15.5051,0 25.5,-0.37375 25.5,-0.95354 z m -23,-39.48744 c 0,-0.24254 0.45,-0.7191 1,-1.05902 0.55,-0.33992 1,-0.14148 1,0.44098 0,0.58246 -0.45,1.05902 -1,1.05902 -0.55,0 -1,-0.19844 -1,-0.44098 z m 814,23.13715 c 0,-0.16711 -1.6875,-1.85461 -3.75,-3.75 l -3.75,-3.44617 3.4462,3.75 c 3.2076,3.49042 4.0538,4.20979 4.0538,3.44617 z m 316,-70.75519 c 0,-0.58246 -0.45,-0.7809 -1,-0.44098 -0.55,0.33992 -1,0.81648 -1,1.05902 0,0.24254 0.45,0.44098 1,0.44098 0.55,0 1,-0.47656 1,-1.05902 z m -137,381.44296 c -20.6737,-3.90969 -30.0605,-6.71078 -44.9384,-13.40992 -8.6264,-3.88425 -9.7042,-4.14342 -12.7107,-3.05627 -3.2913,1.19016 -7.3509,0.17736 -7.3509,-1.83395 0,-0.82978 17.7566,-41.17378 18.409,-41.8261 0.1829,-0.18292 1.5157,0.2065 2.9618,0.86537 1.85,0.84294 2.6312,1.96537 2.6358,3.78745 0.02,7.93277 12.475,16.28074 32.2938,21.64517 28.8417,7.80672 55.3449,3.16765 63.4274,-11.1022 3.2751,-5.78226 2.9775,-9.94823 -0.9946,-13.9203 -4.2393,-4.23926 -11.0556,-5.80082 -37.2397,-8.53122 -27.6814,-2.88654 -37.4817,-4.57062 -46.1216,-7.92551 -17.6399,-6.84959 -27.6572,-19.99608 -29.0557,-38.1323 -1.2056,-15.63333 3.457,-28.58058 13.8885,-38.56649 10.4206,-9.97555 20.6964,-14.75423 38.2953,-17.80906 23.5425,-4.08651 46.0181,-0.74638 77.8303,11.56649 12.7587,4.93821 13.2578,5.04699 15.9934,3.48533 2.5884,-1.47765 4.9621,-1.18998 7.4851,0.90712 0.2666,0.22164 -19.5187,40.4095 -20.334,41.30235 -0.9404,1.02984 -5.4748,-3.3834 -5.4748,-5.32855 0,-5.32978 -16.5992,-15.49104 -32.176,-19.69667 -11.0756,-2.99034 -34.2097,-3.25681 -42.987,-0.49514 -11.2161,3.52903 -17.7255,10.82771 -16.4834,18.48211 1.4069,8.66981 6.0035,10.10977 45.4534,14.23898 10.6189,1.11147 22.3189,2.65929 26,3.4396 30.0629,6.37259 45.193,22.51535 45.193,48.21787 0,25.96727 -15.2682,42.82355 -46.0055,50.79074 -9.0736,2.35189 -12.864,2.76473 -27.9945,3.04904 -9.625,0.18086 -18.625,0.11609 -20,-0.14394 z m -986,-5.28516 c 0,-2.25568 0.77878,-3.36072 3.5,-4.96628 l 3.5,-2.06505 0,-72.09947 c 0,-44.85174 -0.36795,-72.78698 -0.97362,-73.91869 -0.53549,-1.00058 -2.11049,-2.10457 -3.5,-2.45331 C 450.41666,357.06647 450,356.37504 450,353.40352 l 0,-3.55837 63.75,0.42725 c 70.66797,0.47362 70.77221,0.48259 84.26353,7.24818 18.11268,9.08311 27.41738,31.62859 22.54352,54.6234 -3.5402,16.70256 -14.28676,28.12342 -31.01552,32.9616 -11.75814,3.40061 -11.1891,2.65281 -6.77834,8.90766 2.12802,3.01772 10.35951,14.69348 18.2922,25.94614 16.99524,24.10804 19.93953,27.42825 25.69461,28.97527 3.78608,1.01773 4.25,1.4657 4.25,4.10389 l 0,2.96146 -31,0 -31,0 0,-2.90217 c 0,-2.32558 0.59604,-3.10996 3,-3.94799 1.65,-0.57519 3,-1.70538 3,-2.51154 0,-1.49397 -8.67336,-14.60224 -27.29281,-41.24832 L 537.30254,450.5 516.65127,450.22971 496,449.95942 l 0,27.8653 c 0,29.95535 -0.0576,29.60961 5.25,31.4919 1.14532,0.40617 1.75,1.66805 1.75,3.652 l 0,3.03138 -26.5,0 -26.5,0 0,-2.90122 z m 122.5,-95.8756 c 7.19654,-3.25472 9.89617,-7.62405 10.27703,-16.63335 C 583.17094,391.27181 580.70949,386.60474 573.5,383 l -5,-2.5 -36.25,-0.30705 -36.25,-0.30705 0,20.13449 0,20.13449 35.75,-0.33519 c 34.61695,-0.32458 35.90847,-0.40687 40.75,-2.59651 z M 1547,393.5 c 0,-0.825 0.45,-1.5 1,-1.5 0.55,0 1,0.675 1,1.5 0,0.825 -0.45,1.5 -1,1.5 -0.55,0 -1,-0.675 -1,-1.5 z m -176,-43.94098 c 0,-1.75653 0.6001,-2.01516 1.4573,-0.62812 0.3164,0.512 0.118,1.21356 -0.441,1.55902 -0.559,0.34546 -1.0163,-0.0734 -1.0163,-0.9309 z m -561.73625,-7.2766 c 1.52006,-0.22986 3.77006,-0.22371 5,0.0136 1.22994,0.23736 -0.0137,0.42542 -2.76375,0.41792 -2.75,-0.008 -3.75631,-0.20172 -2.23625,-0.43157 z m 12.97459,0.0305 c 0.95609,-0.25029 2.75609,-0.25937 4,-0.0202 1.24391,0.23919 0.46166,0.44398 -1.73834,0.45508 -2.2,0.0111 -3.21775,-0.18461 -2.26166,-0.4349 z m 10.53809,-0.0464 c 2.35204,-0.21124 5.95204,-0.20827 8,0.007 2.04796,0.21487 0.12357,0.38771 -4.27643,0.38408 -4.4,-0.004 -6.07561,-0.17944 -3.72357,-0.39069 z m 18.4944,0.12933 c 0.33229,-0.33229 1.1948,-0.36781 1.91667,-0.0789 0.79773,0.31922 0.56078,0.55618 -0.60417,0.60416 -1.05416,0.0434 -1.64479,-0.19293 -1.3125,-0.52522 z M 860,335 c 0,-1.1 0.45,-2 1,-2 0.55,0 1,0.9 1,2 0,1.1 -0.45,2 -1,2 -0.55,0 -1,-0.9 -1,-2 z m 61,1.13806 c 0,-0.49942 1.125,-1.64517 2.5,-2.5461 1.375,-0.90094 2.5,-1.22945 2.5,-0.73002 0,0.49942 -1.125,1.64517 -2.5,2.5461 -1.375,0.90094 -2.5,1.22945 -2.5,0.73002 z M 670.66667,335.33333 C 668.75264,333.41931 672.82305,329 676.5,329 c 1.94203,0 2.5,0.51333 2.5,2.3 0,1.265 -0.54,2.84 -1.2,3.5 -1.2834,1.2834 -6.0285,1.63817 -7.13333,0.53333 z m 133.80593,-3.39409 c -1.00713,-2.23342 -2.62089,-4.48342 -3.58613,-5 C 799.82473,326.37101 758.41893,326 696.06574,326 L 593,326 l 0,-3.80073 c 0,-3.51704 0.3377,-3.96481 4.5243,-5.99881 2.76181,-1.34179 4.90439,-3.1978 5.5,-4.76437 C 604.35726,307.93013 604.33417,241 603,241 c -1.43993,0 -1.23399,-7.35197 0.25,-8.925 0.76177,-0.80747 0.85941,-1.47388 0.25,-1.70617 -1.15187,-0.43906 -1.37865,-15.81271 -0.25,-16.94785 0.4125,-0.41487 0.74337,-23.51681 0.73526,-51.33765 -0.0111,-38.10353 -0.3195,-51.20012 -1.25,-53.08333 -0.67939,-1.375 -3.13145,-3.4 -5.44902,-4.5 -3.83238,-1.81898 -4.21704,-2.33941 -4.25,-5.75 L 593,95 l 37,0 37,0 0,3.922448 c 0,3.569372 -0.30416,4.022832 -3.37908,5.037642 -1.8585,0.61336 -4.221,2.04535 -5.25,3.18221 -1.79358,1.98155 -1.88213,5.7005 -2.14212,89.96235 L 655.9576,285 l 71.79869,0 c 79.44666,0 74.97425,0.37652 77.24473,-6.5031 1.05787,-3.20538 1.48108,-3.4969 5.07653,-3.4969 l 3.92245,0 0,30.5 0,30.5 -3.84813,0 c -3.53178,0 -3.99865,-0.33382 -5.67927,-4.06076 z m 234.0301,1.07295 c -0.361,-1.6433 -1.8074,-3.8933 -3.2143,-5 C 1032.7628,326.02556 1031.4237,326 929.86514,326 L 827,326 l 0,-4.02475 c 0,-3.4714 0.37809,-4.16799 2.75,-5.06661 1.5125,-0.57303 3.7625,-1.99033 5,-3.14957 2.20087,-2.06167 2.24927,-2.57884 2.21673,-23.68338 l -0.0333,-21.57569 -1.96673,2.36078 c -1.49791,1.79804 -1.96673,1.97682 -1.96673,0.75 0,-0.88593 0.94217,-2.55295 2.09371,-3.70449 1.73389,-1.73389 1.95799,-2.72207 1.30398,-5.75 -0.43436,-2.01096 -0.84177,-4.33129 -0.90536,-5.15629 -0.0636,-0.825 -0.4949,-2.34321 -0.95846,-3.37379 -0.58186,-1.29357 -0.38845,-2.12809 0.62462,-2.69503 1.24957,-0.69929 1.50159,-7.32602 1.69721,-44.62621 0.13836,-26.38327 -0.15941,-45.1052 -0.74872,-47.07426 -0.69771,-2.33129 -0.66501,-3.07559 0.11396,-2.59416 0.78393,0.4845 0.87546,-3.39265 0.32414,-13.73071 C 836.12251,134.98263 835.8096,127.825 835.84971,127 c 0.0401,-0.825 -0.1824,-5.876 -0.49445,-11.22444 l -0.56737,-9.72443 -3.89396,-1.71801 C 827.35128,102.77009 827,102.27162 827,98.807552 L 827,95 l 37,0 37,0 0,3.920545 c 0,3.535145 -0.29225,3.984735 -2.97297,4.573515 -1.63513,0.35914 -4.11013,2.00442 -5.5,3.65618 L 890,110.15345 l 0,87.42328 0,87.42327 71.27749,0 c 79.10961,0 74.40251,0.40355 77.34161,-6.63069 1.2647,-3.02688 1.8129,-3.36931 5.3943,-3.36931 l 3.9866,0 0,30.5 0,30.5 -4.4205,0 c -4.0947,0 -4.469,-0.22029 -5.0768,-2.98781 z M 465.2,331.8 c -1.47321,-1.47321 -1.56956,-7.24095 -0.16482,-9.86574 2.47177,-4.61854 10.96482,-0.32305 10.96482,5.54561 0,4.46879 -7.60804,7.51209 -10.8,4.32013 z m 160.9545,-0.35197 c 0.19002,-0.98026 0.95098,-1.98391 1.691,-2.23033 0.86063,-0.28658 1.221,0.19425 1,1.33427 -0.19002,0.98026 -0.95098,1.98391 -1.691,2.23033 -0.86063,0.28658 -1.221,-0.19425 -1,-1.33427 z m 848.9244,-0.8647 c -0.043,-1.05416 0.193,-1.64479 0.5253,-1.3125 0.3323,0.33229 0.3678,1.19479 0.079,1.91667 -0.3192,0.79773 -0.5562,0.56078 -0.6042,-0.60417 z M 36,329 c 0,-1.11111 0.666667,-2 1.5,-2 0.833333,0 1.5,0.88889 1.5,2 0,1.11111 -0.666667,2 -1.5,2 -0.833333,0 -1.5,-0.88889 -1.5,-2 z m 211.07895,0.58333 c -0.0434,-1.05416 0.19292,-1.64479 0.52522,-1.3125 0.33229,0.33229 0.36781,1.19479 0.0789,1.91667 -0.31922,0.79773 -0.55618,0.56078 -0.60416,-0.60417 z M 943,330 c 0,-0.55 0.45,-1 1,-1 0.55,0 1,0.45 1,1 0,0.55 -0.45,1 -1,1 -0.55,0 -1,-0.45 -1,-1 z m 526,0.1784 c 0,-0.38352 0.9,-1.25937 2,-1.94633 1.7212,-1.0749 2,-0.99869 2,0.54665 0,1.07879 -0.7985,1.85582 -2,1.94633 -1.1,0.0829 -2,-0.16313 -2,-0.54665 z m 9,-2.6784 c 0,-0.825 0.7301,-1.5 1.6224,-1.5 1.3288,0 1.3972,0.27149 0.3776,1.5 -0.6847,0.825 -1.4148,1.5 -1.6224,1.5 -0.2077,0 -0.3776,-0.675 -0.3776,-1.5 z m -404.4462,-0.41288 C 1073.1816,326.48475 1069.9843,326 1066.3835,326 l -6.4985,0 0.3075,-4.25 c 0.2452,-3.38832 0.7202,-4.30909 2.3431,-4.54145 1.1195,-0.1603 3.3695,-1.35472 5,-2.65427 l 2.9644,-2.36282 0.2874,-34.59573 c 0.3016,-36.31615 0.2493,-36.74888 -3.983,-32.91868 -1.7417,1.57614 -2.0172,1.54645 -4.5788,-0.49337 -1.4991,-1.19373 -4.0756,-2.9112 -5.7256,-3.81658 -3.9498,-2.16732 -4.4665,-3.0904 -4.4847,-8.01134 -0.012,-3.23059 0.6416,-4.84746 2.9643,-7.33394 2.5556,-2.73573 3.4271,-3.09141 6.1235,-2.49918 1.7291,0.37978 4.6633,1.587 6.5204,2.68271 l 3.3765,1.9922 0,-58.46392 c 0,-57.24034 -0.043,-58.51793 -2.0303,-61.04499 -1.1166,-1.4196 -3.5916,-3.14568 -5.5,-3.83575 C 1060.3391,102.72085 1060,102.2269 1060,98.799112 L 1060,95 l 37,0 37,0 -0.01,3.75 c -0.01,3.42703 -0.3559,3.89522 -4.0243,5.43613 -6.7202,2.82279 -6.9655,4.207 -6.9655,39.3065 l 0,30.55687 2.5651,0.97525 c 1.4108,0.53639 3.5483,0.97533 4.75,0.97544 2.4471,2.1e-4 2.5711,1.63936 1.3242,17.49981 -0.6556,8.33807 -2.1863,38.28086 -3.144,61.5 -0.765,18.54691 -1.2744,21.70897 -3.5953,22.31589 -1.7556,0.45911 -1.8996,1.5869 -1.8944,14.84049 0.01,18.61678 0.7737,21.41612 6.5656,23.97815 4.1528,1.83697 4.4288,2.20353 4.4288,5.88183 l 0,3.92278 -27.75,0.31811 c -15.2625,0.17496 -28.7117,0.67786 -29.8871,1.11755 -1.3071,0.48894 -2.3981,0.3772 -2.8091,-0.28768 z M 23,326 c 0,-0.55 0.45,-1 1,-1 0.55,0 1,0.45 1,1 0,0.55 -0.45,1 -1,1 -0.55,0 -1,-0.45 -1,-1 z m 433,0 c 0,-0.55 0.675,-1 1.5,-1 0.825,0 1.5,0.45 1.5,1 0,0.55 -0.675,1 -1.5,1 -0.825,0 -1.5,-0.45 -1.5,-1 z m -41,-2 c 0,-0.55 0.70156,-1 1.55902,-1 0.85746,0 1.2809,0.45 0.94098,1 -0.33992,0.55 -1.04148,1 -1.55902,1 C 415.42344,325 415,324.55 415,324 z m -162.2907,-1.31516 c -0.28834,-0.75141 -0.12278,-2.0004 0.36791,-2.77552 0.71418,-1.12817 0.89522,-1.04843 0.90748,0.3997 0.008,0.99496 0.46531,1.5309 1.01531,1.19098 1.48354,-0.91688 1.21134,0.0797 -0.38322,1.40308 -1.05755,0.87769 -1.50664,0.82631 -1.90748,-0.21824 z m 10.12553,-4.00903 c 1.20091,-1.2783 1.84185,-2.70045 1.42432,-3.16032 -0.41753,-0.45988 -0.19665,-0.51244 0.49085,-0.1168 1.75089,1.00759 1.55597,2.64856 -0.5,4.20926 -2.85949,2.17067 -3.76795,1.57229 -1.41517,-0.93214 z M 1510.8724,318.25 c -1.2438,-1.58606 -1.2085,-1.62143 0.3776,-0.37756 0.9625,0.75485 1.75,1.54235 1.75,1.75 0,0.82304 -0.8212,0.29331 -2.1276,-1.37244 z M 283,317 c 0,-1.50615 0.52215,-2.04609 1.75,-1.80963 0.9625,0.18536 1.75,0.99969 1.75,1.80963 0,0.80994 -0.7875,1.62427 -1.75,1.80963 C 283.52215,319.04609 283,318.50615 283,317 z m 1216.0789,0.58333 c -0.043,-1.05416 0.193,-1.64479 0.5253,-1.3125 0.3323,0.33229 0.3678,1.19479 0.079,1.91667 -0.3192,0.79773 -0.5562,0.56078 -0.6042,-0.60417 z m -1229.41223,-0.25 c -1.09421,-1.0942 -0.75998,-2 0.73799,-2 0.77256,0 1.17442,0.6 0.89301,1.33334 -0.58589,1.52679 -0.7172,1.58047 -1.631,0.66666 z M 1494,317 c 0,-0.55 0.1984,-1 0.441,-1 0.2425,0 0.7191,0.45 1.059,1 0.3399,0.55 0.1415,1 -0.441,1 -0.5824,0 -1.059,-0.45 -1.059,-1 z M 250.25,308.27976 c -0.6875,-0.24553 -1.1978,-1.87143 -1.134,-3.61309 0.078,-2.12821 0.27722,-2.5108 0.60761,-1.16667 0.27038,1.1 0.95731,2.57337 1.5265,3.27417 1.2082,1.48754 0.77507,2.13959 -1.00011,1.50559 z M 253,308 c 0,-0.55 0.19844,-1 0.44098,-1 0.24254,0 0.7191,0.45 1.05902,1 0.33992,0.55 0.14148,1 -0.44098,1 C 253.47656,309 253,308.55 253,308 z m -36,-6.88337 c 0,-0.48585 0.9,-1.11872 2,-1.40638 1.29986,-0.33992 2,-0.0307 2,0.88337 0,0.77351 -0.9,1.40638 -2,1.40638 -1.1,0 -2,-0.39752 -2,-0.88337 z m 1513,-2.00191 c 0,-1.43811 0.4614,-1.87491 1.5423,-1.46013 1.7067,0.65496 1.4968,2.49904 -0.3548,3.11624 -0.6595,0.21982 -1.1875,-0.5166 -1.1875,-1.65611 z M 224.13725,298.25645 c -0.5789,-1.08168 -0.63492,-2.4512 -0.13346,-3.26259 0.47534,-0.7691 0.64238,-1.75735 0.37121,-2.19611 -0.27117,-0.43876 0.22891,-0.79775 1.1113,-0.79775 1.29519,0 1.4873,0.72259 0.99702,3.75 -0.58255,3.59706 -0.53995,3.66843 1.04453,1.75 1.6429,-1.98917 1.64994,-1.98923 1.30051,-0.0115 -0.46507,2.63228 -3.4333,3.11818 -4.69111,0.76793 z M 230,299.55902 c 0,-0.24254 0.45,-0.7191 1,-1.05902 0.55,-0.33992 1,-0.14148 1,0.44098 0,0.58246 -0.45,1.05902 -1,1.05902 -0.55,0 -1,-0.19844 -1,-0.44098 z m 19.58295,-0.42481 c -0.43077,-0.697 -0.51316,-1.53733 -0.18309,-1.86741 0.89497,-0.89496 1.87077,0.4213 1.38739,1.87145 -0.33872,1.01617 -0.57427,1.01538 -1.2043,-0.004 z M 273,299.10565 c 0,-0.88164 -0.83682,-1.17884 -2.45063,-0.87034 -1.34785,0.25766 -2.3657,0.19762 -2.2619,-0.13342 0.10379,-0.33104 -1.42502,-2.20599 -3.39737,-4.16655 C 261.00832,290.07676 259.21422,285 261.7324,285 c 2.27935,0 11.56508,5.91967 13.63976,8.69537 1.8409,2.46293 1.83673,2.54019 -0.25,4.62691 C 273.73944,299.705 273,299.97795 273,299.10565 z m -18.92105,-1.52232 c -0.0434,-1.05416 0.19292,-1.64479 0.52522,-1.3125 0.33229,0.33229 0.36781,1.19479 0.0789,1.91667 -0.31922,0.79773 -0.55618,0.56078 -0.60416,-0.60417 z m -34.4671,-1.15246 c -0.33931,-0.88423 -1.10657,-1.24315 -1.77473,-0.83021 -0.83556,0.51641 -0.94392,0.17218 -0.37354,-1.18662 0.4419,-1.05272 0.77134,-2.70154 0.73209,-3.66404 -0.0393,-0.9625 0.35066,-1.75 0.86648,-1.75 0.51582,0 0.93785,1.26 0.93785,2.8 0,1.54 0.48921,3.28921 1.08713,3.88713 0.69495,0.69495 0.73275,1.30616 0.10479,1.69426 -0.54029,0.33392 -1.25133,-0.0938 -1.58007,-0.95052 z m 198.72398,-1.99809 c -0.7217,-1.88073 1.04795,-3.93166 2.57704,-2.98663 1.6483,1.01871 1.30343,4.55385 -0.44425,4.55385 -0.84227,0 -1.80202,-0.70525 -2.13279,-1.56722 z m -211.75238,-1.07591 c -0.95273,-2.48276 0.0974,-2.82177 1.37071,-0.44252 0.6143,1.14784 0.69884,2.08565 0.18801,2.08565 -0.5105,0 -1.21193,-0.73941 -1.55872,-1.64313 z M 80,291.5 c 0,-0.825 0.45,-1.5 1,-1.5 0.55,0 1,0.675 1,1.5 0,0.825 -0.45,1.5 -1,1.5 -0.55,0 -1,-0.675 -1,-1.5 z m 134.07895,-1.75 c -0.0854,-2.97323 -2.03785,-3.88462 -2.14234,-1 -0.0456,1.25881 -0.33483,1.07089 -1.03048,-0.66952 -0.60602,-1.51615 -0.61488,-2.77173 -0.0237,-3.36286 1.29024,-1.29024 2.71101,-0.23906 4.48605,3.3191 0.8223,1.64833 1.11423,2.76158 0.64874,2.47389 -0.46549,-0.28769 -1.07426,0.0422 -1.35281,0.73316 -0.27856,0.69093 -0.54199,0.0187 -0.58541,-1.49377 z M 244.25,290.50417 C 242.56092,288.58571 242.67405,287 244.5,287 c 0.93333,0 1.5,0.94444 1.5,2.5 0,2.876 -0.0677,2.91488 -1.75,1.00417 z m -46.68571,-1.21104 c -0.54268,-1.4252 -0.42782,-1.54006 0.5598,-0.5598 0.68342,0.67834 0.99067,1.48524 0.68278,1.79313 -0.30789,0.30789 -0.86705,-0.24711 -1.24258,-1.23333 z m 40.59579,-1.53305 c -0.63804,-0.63804 -1.1464,-1.63258 -1.12967,-2.21008 0.0167,-0.5775 0.49438,-0.25304 1.06146,0.72103 0.56708,0.97407 1.45339,1.51001 1.96959,1.19099 0.5162,-0.31903 0.93854,-0.35505 0.93854,-0.08 0,1.20175 -1.77937,1.43866 -2.83992,0.37811 z M 227,286 c 0,-0.55 0.70156,-1 1.55902,-1 0.85746,0 1.2809,0.45 0.94098,1 -0.33992,0.55 -1.04148,1 -1.55902,1 C 227.42344,287 227,286.55 227,286 z m 200,-0.5 c 0,-0.825 0.45,-1.5 1,-1.5 0.55,0 1,0.675 1,1.5 0,0.825 -0.45,1.5 -1,1.5 -0.55,0 -1,-0.675 -1,-1.5 z m 19.68333,0.85 c -1.06527,-1.06527 -0.80245,-4.35 0.34805,-4.35 1.47853,0 2.40944,2.95918 1.28474,4.08388 -0.5222,0.5222 -1.25695,0.64195 -1.63279,0.26612 z m -247.07834,-1.93699 c -0.33252,-0.86653 0.0703,-2.53908 0.89522,-3.71677 1.46823,-2.0962 1.49979,-2.07469 1.49979,1.02224 0,3.50902 -1.45451,5.14543 -2.39501,2.69453 z m 1398.52451,-0.97549 c -4.3705,-5.55621 -5.2011,-14.85877 -1.9323,-21.64019 1.3435,-2.78703 4.5599,-4.79733 7.6755,-4.79733 2.5869,0 5.7834,3.95602 6.5137,8.06127 0.9075,5.10239 -0.9866,14.10574 -3.387,16.09902 -1.0997,0.91316 -1.9994,2.10252 -1.9994,2.64301 0,0.94986 -2.2756,2.1967 -4.0092,2.1967 -0.4651,0 -1.7527,-1.15312 -2.8613,-2.56248 z m -24.7962,-0.9534 c 0,-0.81626 0.6,-1.48412 1.3334,-1.48412 0.7333,0 1.3333,0.1699 1.3333,0.37756 0,0.20765 -0.6,0.87551 -1.3333,1.48412 -1.0093,0.8376 -1.3334,0.74583 -1.3334,-0.37756 z m -903.46937,-1.50046 c -1.78243,-1.041 -3.24807,-6.81902 -2.33396,-9.20117 0.38183,-0.99504 1.46224,-1.32544 3.27013,-1.00005 4.27527,0.7695 5.22294,2.07803 4.95039,6.83547 -0.20809,3.63215 -0.58902,4.3679 -2.25049,4.34674 -1.1,-0.014 -2.73623,-0.45545 -3.63607,-0.98099 z M 484.16667,279 c 0.50335,-1.51005 2.11144,-1.66567 2.58333,-0.25 0.22917,0.6875 -0.33333,1.25 -1.25,1.25 -0.91667,0 -1.51667,-0.45 -1.33333,-1 z m -233.5,-0.66667 C 249.2901,276.95677 250.07281,275 252,275 c 1.33333,0 2,0.66667 2,2 0,1.92719 -1.95677,2.7099 -3.33333,1.33333 z M 221.19694,276.5 c 0.13923,-1.1 -0.0805,-2.53141 -0.48821,-3.1809 -0.40774,-0.6495 -0.31641,-1.44353 0.20296,-1.76452 1.45952,-0.90203 2.34514,3.18585 1.1212,5.17524 -1.00484,1.63326 -1.06951,1.61548 -0.83595,-0.22982 z m 611.88201,-0.91667 c -0.0434,-1.05416 0.19293,-1.64479 0.52522,-1.3125 0.33229,0.33229 0.36781,1.19479 0.0789,1.91667 -0.31922,0.79773 -0.55618,0.56078 -0.60416,-0.60417 z M 208.5,273 c -0.33992,-0.55 -0.14148,-1 0.44098,-1 0.58246,0 1.05902,0.45 1.05902,1 0,0.55 -0.19844,1 -0.44098,1 -0.24254,0 -0.7191,-0.45 -1.05902,-1 z M 68,271.11663 c 0,-0.48585 0.866332,-1.10992 1.925182,-1.38681 1.350553,-0.35318 1.766339,-0.0895 1.393011,0.88336 C 70.736802,272.12827 68,272.5435 68,271.11663 z m 149,-0.0576 c 0,-0.51754 0.44485,-1.21592 0.98855,-1.55194 0.56686,-0.35034 0.7345,0.0511 0.39301,0.94098 C 217.71677,272.18048 217,272.49745 217,271.05902 z m -27,-1.5 c 0,-0.79254 0.40803,-1.69316 0.90674,-2.00138 0.49871,-0.30822 0.67122,0.34022 0.38337,1.44098 C 190.6795,271.33361 190,271.62877 190,269.55902 z M 1436,267 c 0,-0.55 0.45,-1 1,-1 0.55,0 1,0.45 1,1 0,0.55 -0.45,1 -1,1 -0.55,0 -1,-0.45 -1,-1 z M 199,265.94098 c 0,-0.58246 -0.43681,-0.78905 -0.97068,-0.4591 -1.21967,0.7538 -2.3423,-3.50339 -1.74838,-6.63017 0.32717,-1.72247 0.48313,-1.43013 0.58288,1.09257 L 197,263.38856 199.5,260 c 1.375,-1.86371 2.48569,-2.96363 2.4682,-2.44428 -0.0175,0.51935 -0.68281,1.80454 -1.47847,2.85597 -0.8349,1.10326 -1.19849,2.90052 -0.85979,4.25 C 199.95272,265.94776 199.94303,267 199.60841,267 199.27378,267 199,266.52344 199,265.94098 z m 10,-0.91666 c 0,-0.6283 0.41157,-0.88799 0.91459,-0.57711 0.50302,0.31089 1.10302,0.22495 1.33333,-0.19098 0.23031,-0.41593 0.35312,-0.33436 0.27291,0.18127 C 211.30538,265.82255 209,266.35921 209,265.02432 z M 232.15789,264 c 0,-1.375 0.22698,-1.9375 0.50439,-1.25 0.27741,0.6875 0.27741,1.8125 0,2.5 -0.27741,0.6875 -0.50439,0.125 -0.50439,-1.25 z m 1323.34921,1.01145 c -0.3504,-0.56686 0.051,-0.7345 0.941,-0.39301 1.7324,0.66479 2.0493,1.38156 0.6109,1.38156 -0.5175,0 -1.2159,-0.44485 -1.5519,-0.98855 z M 236.75,262.805 c -1.13515,-1.17082 -1.31082,-1.79962 -0.5,-1.78969 2.04504,0.0251 3.69552,1.4621 2.94721,2.56609 -0.43972,0.64873 -1.34351,0.362 -2.44721,-0.7764 z M 228,262.55902 c 0,-0.24254 0.45,-0.7191 1,-1.05902 0.55,-0.33992 1,-0.14148 1,0.44098 0,0.58246 -0.45,1.05902 -1,1.05902 -0.55,0 -1,-0.19844 -1,-0.44098 z m -35.92105,-1.97569 c -0.0434,-1.05416 0.19292,-1.64479 0.52522,-1.3125 0.33229,0.33229 0.36781,1.19479 0.0789,1.91667 -0.31922,0.79773 -0.55618,0.56078 -0.60416,-0.60417 z m 23.21949,-0.91247 c -0.52277,-1.19397 -0.84033,-3.52086 -0.7057,-5.17086 0.33794,-4.14181 0.43042,-4.27324 1.40726,-2 1.19384,2.77822 1.19384,4.73784 0,4 -0.55,-0.33992 -1,-0.16803 -1,0.38197 0,1.9488 1.65514,1.98392 3.0386,0.0645 1.91602,-2.65833 2.9614,-2.44209 2.9614,0.61258 0,1.45136 -0.43284,2.2915 -1,1.94098 -0.55,-0.33992 -1,-0.18962 -1,0.33399 0,2.04087 -2.79042,1.91789 -3.70156,-0.16313 z M 1623,260.05902 c 0,-0.51754 0.4448,-1.21592 0.9885,-1.55194 0.5669,-0.35034 0.7346,0.0511 0.3931,0.94098 -0.6648,1.73242 -1.3816,2.04939 -1.3816,0.61096 z M 230.65066,258.53203 c -0.30982,-0.80739 -0.22638,-1.67622 0.18543,-1.93073 0.41181,-0.25451 0.81419,0.40608 0.89418,1.46798 0.17299,2.29656 -0.29838,2.4986 -1.07961,0.46275 z M 180,257.44098 c 0,-0.85746 0.45,-1.2809 1,-0.94098 0.55,0.33992 1,1.04148 1,1.55902 0,0.51754 -0.45,0.94098 -1,0.94098 -0.55,0 -1,-0.70156 -1,-1.55902 z m 14.07895,0.14235 c -0.0434,-1.05416 0.19292,-1.64479 0.52522,-1.3125 0.33229,0.33229 0.36781,1.19479 0.0789,1.91667 -0.31922,0.79773 -0.55618,0.56078 -0.60416,-0.60417 z M 239,257.96862 C 239,257.43588 239.675,257 240.5,257 c 0.825,0 1.5,0.17686 1.5,0.39301 0,0.21616 -0.675,0.65203 -1.5,0.96862 -0.825,0.31658 -1.5,0.13972 -1.5,-0.39301 z M 34,257 c 0,-0.55 0.45,-1 1,-1 0.55,0 1,0.45 1,1 0,0.55 -0.45,1 -1,1 -0.55,0 -1,-0.45 -1,-1 z m 169,-1.31854 c 0,-0.85988 -0.52647,-1.8888 -1.16994,-2.28649 -0.78665,-0.48618 -0.96074,-0.1779 -0.53138,0.94099 0.3512,0.91522 0.20267,1.66404 -0.33006,1.66404 -0.53274,0 -0.97551,-0.5625 -0.98393,-1.25 -0.0102,-0.83333 -0.33844,-0.75 -0.98469,0.25 -0.82843,1.2819 -0.9716,1.24555 -0.98469,-0.25 -0.008,-0.9625 0.39256,-1.75 0.89107,-1.75 0.49851,0 0.7881,-0.7875 0.64352,-1.75 -0.14457,-0.9625 -0.0631,-1.15446 0.18109,-0.42657 0.24417,0.72788 1.07958,1.0795 1.85647,0.78138 0.8484,-0.32556 1.41254,0.0872 1.41254,1.03356 0,0.94881 0.5638,1.35926 1.41724,1.03176 0.77948,-0.29911 1.70327,0.20152 2.05285,1.11253 0.34959,0.91101 0.31574,1.3365 -0.0752,0.94554 -0.39096,-0.39097 -1.31475,-0.20965 -2.05285,0.40292 C 203.31666,256.98209 203,256.87599 203,255.68146 z M 67.362747,254.50292 c -0.345572,-0.90055 -0.166359,-2.09931 0.398251,-2.66392 1.630104,-1.6301 4.739002,-0.53146 4.739002,1.6747 0,2.54367 -4.228318,3.35787 -5.137253,0.98922 z m 157.179483,0.56541 C 224.17908,254.48075 224.31639,254 224.84736,254 c 0.53097,0 0.74349,-1.0125 0.47227,-2.25 -0.29113,-1.32837 -0.15038,-1.7994 0.34362,-1.14994 0.46021,0.60503 1.33405,1.28003 1.94186,1.5 0.69431,0.25127 0.45315,1.07586 -0.64875,2.21827 -1.13507,1.17678 -1.98682,1.44139 -2.41413,0.75 z m 481.50536,-2.21783 c -2.98505,-4.0375 -1.95108,-8.18303 2.16024,-8.66108 5.17693,-0.60195 8.622,5.81629 5.40012,10.06058 -2.01327,2.65216 -4.9694,2.10495 -7.56036,-1.3995 z M 51,254 c 0,-0.55 0.45,-1 1,-1 0.55,0 1,0.45 1,1 0,0.55 -0.45,1 -1,1 -0.55,0 -1,-0.45 -1,-1 z m 134.36111,-0.34561 c 0.0153,-0.63492 0.81003,-1.91164 1.76612,-2.83718 1.63091,-1.57878 1.72987,-1.57031 1.60126,0.13704 -0.15374,2.04103 -3.41443,4.65562 -3.36738,2.70014 z m 10.71784,-0.0711 c -0.0434,-1.05416 0.19292,-1.64479 0.52522,-1.3125 0.33229,0.33229 0.36781,1.19479 0.0789,1.91667 -0.31922,0.79773 -0.55618,0.56078 -0.60416,-0.60417 z m 51.39001,0.36645 c -0.91846,-1.4861 -0.188,-2.0122 1.41676,-1.02041 0.85973,0.53135 0.96201,1.0467 0.29014,1.46194 -0.57071,0.35272 -1.33882,0.15403 -1.7069,-0.44153 z m 8.26225,-0.86962 c -0.43497,-1.66335 -0.30483,-2.05378 0.43724,-1.31171 0.5811,0.5811 0.85979,1.64682 0.61931,2.36826 -0.24965,0.74895 -0.70294,0.29565 -1.05655,-1.05655 z m 3.34774,-0.49683 c -0.0434,-1.05416 0.19293,-1.64479 0.52522,-1.3125 0.33229,0.33229 0.36781,1.19479 0.0789,1.91667 -0.31922,0.79773 -0.55618,0.56078 -0.60416,-0.60417 z m -65.34774,-1.50317 c -0.43497,-1.66335 -0.30483,-2.05378 0.43724,-1.31171 0.5811,0.5811 0.85979,1.64682 0.61931,2.36826 -0.24965,0.74895 -0.70294,0.29565 -1.05655,-1.05655 z M 250,250.55902 c 0,-1.75653 0.60006,-2.01516 1.45729,-0.62812 0.31644,0.512 0.11799,1.21356 -0.44098,1.55902 C 250.45734,251.83538 250,251.41648 250,250.55902 z M 27,248 c 0,-0.55 0.701558,-1 1.559017,-1 0.857459,0 1.280902,0.45 0.940983,1 -0.339919,0.55 -1.041476,1 -1.559017,1 C 27.423442,249 27,248.55 27,248 z m 231.07895,-0.41667 c -0.0434,-1.05416 0.19293,-1.64479 0.52522,-1.3125 0.33229,0.33229 0.36781,1.19479 0.0789,1.91667 -0.31922,0.79773 -0.55618,0.56078 -0.60416,-0.60417 z m -62.74562,-1.03934 c 0,-0.80081 0.38234,-1.21971 0.84965,-0.9309 0.4673,0.28881 0.59075,0.94401 0.27431,1.45601 -0.80862,1.30838 -1.12396,1.16106 -1.12396,-0.52511 z m -16.60212,-2.46383 c -0.43497,-1.66335 -0.30483,-2.05378 0.43724,-1.31171 0.5811,0.5811 0.85979,1.64682 0.61931,2.36826 -0.24965,0.74895 -0.70294,0.29565 -1.05655,-1.05655 z M 202,242 c 0,-0.55 0.42344,-1 0.94098,-1 0.51754,0 1.2191,0.45 1.55902,1 0.33992,0.55 -0.0835,1 -0.94098,1 C 202.70156,243 202,242.55 202,242 z m 15.66667,-0.66667 C 216.65016,240.31683 216.87158,239 218.05902,239 c 0.58246,0 0.80465,0.41157 0.49377,0.91459 -0.31089,0.50302 5e-5,1.1425 0.69098,1.42105 0.69469,0.28007 0.77197,0.54176 0.1729,0.58541 -0.59584,0.0434 -1.38334,-0.22105 -1.75,-0.58772 z M 182.75,238.91667 c -2.71735,-2.97615 -2.29099,-5.70103 0.8383,-5.35752 2.92698,0.3213 3.71365,0.89052 4.00867,2.90056 0.12156,0.82827 -0.36526,1.1827 -1.18987,0.86627 -0.76759,-0.29455 -1.14664,-0.9384 -0.84234,-1.43076 0.3043,-0.49237 0.0767,-0.89522 -0.50574,-0.89522 -1.43965,0 -1.34223,3.31679 0.14098,4.8 0.66,0.66 0.7725,1.1625 0.25,1.11667 -0.5225,-0.0458 -1.7375,-0.94584 -2.7,-2 z M 56.49331,230.58422 c -2.855658,-2.85566 -3.097221,-5.20309 -1.041679,-10.1227 C 56.620369,217.66434 60.024482,215 62.429591,215 c 1.073873,0 6.490568,5.87548 6.989487,7.58149 0.699494,2.39185 -3.40008,9.07665 -5.307841,8.65501 -0.655742,-0.14493 -2.077038,0.21001 -3.158437,0.78876 -1.593881,0.85302 -2.438293,0.58016 -4.45949,-1.44104 z M 1132,231 c 0,-0.55 0.45,-1 1,-1 0.55,0 1,0.45 1,1 0,0.55 -0.45,1 -1,1 -0.55,0 -1,-0.45 -1,-1 z M 28.5,217 c 0.339919,-0.55 1.068034,-1 1.618034,-1 0.55,0 0.721885,0.45 0.381966,1 -0.339919,0.55 -1.068034,1 -1.618034,1 -0.55,0 -0.721885,-0.45 -0.381966,-1 z m 74.88244,-0.44576 C 102.53914,214.35663 104.76753,212 107.68887,212 c 2.0762,0 2.39636,0.41383 2.12755,2.75 -0.24871,2.16156 -0.90608,2.81783 -3.07211,3.06697 -1.80507,0.20763 -2.96479,-0.22797 -3.36187,-1.26273 z M 546,210 c 0,-1.64634 0.51831,-2.06549 2.25,-1.81955 1.2375,0.17575 2.25,0.99455 2.25,1.81955 0,0.825 -1.0125,1.6438 -2.25,1.81955 C 546.51831,212.06549 546,211.64634 546,210 z M 42,209 c 0,-0.55 0.45,-1 1,-1 0.55,0 1,0.45 1,1 0,0.55 -0.45,1 -1,1 -0.55,0 -1,-0.45 -1,-1 z m 1518.222,-1.16585 c 0.5165,-1.54965 3.659,-1.81033 4.028,-0.33415 0.1375,0.55 -0.8126,1.15037 -2.1114,1.33415 -1.6189,0.22908 -2.2215,-0.0853 -1.9166,-1 z m -982.47202,-9.91426 c -0.96251,-0.56061 -2.42501,-2.32458 -3.25,-3.91993 -3.31121,-6.40318 -0.734,-13.35551 4.74721,-12.80615 4.11166,0.41209 6.9113,4.40027 7.51748,10.70891 0.45701,4.75617 0.32803,5.11154 -2.20473,6.07449 -3.31221,1.2593 -4.5676,1.24874 -6.80996,-0.0573 z m -457.18569,-3.21302 c 0.37553,-0.98622 0.93469,-1.54122 1.24258,-1.23333 0.30789,0.30789 6.4e-4,1.11479 -0.68278,1.79313 -0.98762,0.98026 -1.10248,0.8654 -0.5598,-0.5598 z M 719.5567,193.77749 C 716.74091,189.75738 718.21811,183 721.91274,183 c 3.77463,0 6.06672,7.15661 3.47649,10.85468 -1.92545,2.74897 -3.87104,2.72322 -5.83253,-0.0772 z M 1429,193 c 0,-0.55 0.45,-1 1,-1 0.55,0 1,0.45 1,1 0,0.55 -0.45,1 -1,1 -0.55,0 -1,-0.45 -1,-1 z m 3.5,-19 c -0.3399,-0.55 -0.168,-1 0.382,-1 0.55,0 1.2781,0.45 1.618,1 0.3399,0.55 0.168,1 -0.382,1 -0.55,0 -1.2781,-0.45 -1.618,-1 z M 589.09246,165.86887 C 585.53072,162.04579 586.60718,157 590.98454,157 c 3.71168,0 5.20947,2.07155 4.82999,6.68021 -0.24947,3.0297 -0.7608,3.88338 -2.47207,4.12722 -1.25507,0.17884 -3.03278,-0.63202 -4.25,-1.93856 z M 299,157 c 0,-0.55 0.45,-1 1,-1 0.55,0 1,0.45 1,1 0,0.55 -0.45,1 -1,1 -0.55,0 -1,-0.45 -1,-1 z m 248.59105,-1.85268 c -0.82289,-1.33147 1.96854,-4.53754 3.25725,-3.74108 1.94925,1.20471 1.36696,4.59376 -0.78928,4.59376 -1.06754,0 -2.17813,-0.38371 -2.46797,-0.85268 z M 323,148.05902 C 323,147.47656 323.45,147 324,147 c 0.55,0 1,0.19844 1,0.44098 0,0.24254 -0.45,0.7191 -1,1.05902 -0.55,0.33992 -1,0.14148 -1,-0.44098 z m 256.2455,-1.21352 c -1.58738,-1.58738 -1.61626,-7.07474 -0.0455,-8.6455 1.89767,-1.89767 7.27291,-1.43991 9.29216,0.79133 1.45033,1.6026 1.62073,2.62748 0.87291,5.25 -0.82554,2.89505 -1.37249,3.29164 -4.90165,3.55417 -2.2237,0.16542 -4.5207,-0.25278 -5.21792,-0.95 z m 184.98367,-0.033 C 764.84724,144.95828 767,144.65074 767,146.41667 767,147.2875 766.2875,148 765.41667,148 c -0.87084,0 -1.40521,-0.53438 -1.1875,-1.1875 z M 729.63837,144.5 c 0.31659,-0.825 0.97746,-1.5 1.46862,-1.5 0.49115,0 0.89301,0.675 0.89301,1.5 0,0.825 -0.66088,1.5 -1.46862,1.5 -0.89459,0 -1.24363,-0.58629 -0.89301,-1.5 z m -369.41218,-1.07366 c 0.94941,-0.99401 2.00045,-1.53304 2.33565,-1.19784 0.3352,0.3352 -0.44159,1.14849 -1.72619,1.80729 -2.23286,1.14512 -2.25968,1.1183 -0.60946,-0.60945 z M 520,142.55902 c 0,-0.24254 0.45,-0.7191 1,-1.05902 0.55,-0.33992 1,-0.14148 1,0.44098 0,0.58246 -0.45,1.05902 -1,1.05902 -0.55,0 -1,-0.19844 -1,-0.44098 z m 219.39457,-13.04655 c -5.41624,-2.44216 -6.82579,-10.1415 -2.69574,-14.72482 2.76981,-3.0738 7.76801,-4.11472 11.21029,-2.33464 3.67442,1.90011 5.0925,4.33461 5.08591,8.73125 -0.0104,6.97783 -7.04371,11.28463 -13.60046,8.32821 z M 518,118.55902 c 0,-0.24254 0.45,-0.7191 1,-1.05902 0.55,-0.33992 1,-0.14148 1,0.44098 0,0.58246 -0.45,1.05902 -1,1.05902 -0.55,0 -1,-0.19844 -1,-0.44098 z m -7.61146,-1.98888 c -0.99567,-2.59467 0.39988,-4.73919 2.85699,-4.39028 1.65273,0.23469 2.25447,0.98741 2.25447,2.82014 0,1.83273 -0.60174,2.58545 -2.25447,2.82014 -1.35228,0.19202 -2.49559,-0.3082 -2.85699,-1.25 z m 22.64664,-1.5044 c -3.365,-6.28757 1.96226,-12.27821 8.03056,-9.03056 1.39198,0.74497 1.93426,2.10174 1.93426,4.83949 0,3.10624 -0.46736,4.01725 -2.54705,4.96481 -3.70885,1.68987 -6.24062,1.42578 -7.41777,-0.77374 z M 1341,101.5 c -1.0614,-1.27887 -0.7846,-1.5 1.8776,-1.5 2.1088,0 3.1224,0.48693 3.1224,1.5 0,0.825 -0.8449,1.5 -1.8776,1.5 -1.0326,0 -2.4377,-0.675 -3.1224,-1.5 z m -805,-5 c 0,-0.833333 0.88889,-1.5 2,-1.5 1.11111,0 2,0.666667 2,1.5 0,0.833333 -0.88889,1.5 -2,1.5 -1.11111,0 -2,-0.666667 -2,-1.5 z m 500.6726,-0.644154 c -0.7435,-2.842806 1.0239,-5.042157 3.7399,-4.654103 1.5865,0.226675 2.0875,1.018256 2.0875,3.298257 0,2.492444 -0.4431,3.0514 -2.6193,3.30381 -2.0108,0.233231 -2.7561,-0.219305 -3.2081,-1.947964 z M 418.5,81 c -0.33992,-0.55 0.0835,-1 0.94098,-1 0.85746,0 1.55902,0.45 1.55902,1 0,0.55 -0.42344,1 -0.94098,1 -0.51754,0 -1.2191,-0.45 -1.55902,-1 z m 798.1875,-9.645833 C 1215.3834,70.050068 1216.006,69 1218.0833,69 c 1.1638,0 1.9086,0.524167 1.6875,1.1875 -0.4871,1.461343 -2.1568,2.093139 -3.0833,1.166667 z M 572,67 c 0,-0.55 0.675,-1 1.5,-1 0.825,0 1.5,0.45 1.5,1 0,0.55 -0.675,1 -1.5,1 -0.825,0 -1.5,-0.45 -1.5,-1 z m 37.63948,-6.693853 C 608.5133,59.179963 608.95359,58 610.5,58 c 0.825,0 1.5,0.423442 1.5,0.940983 0,1.260978 -1.56159,2.164095 -2.36052,1.365164 z M 1169,57.559017 c 0,-0.242541 0.45,-0.719098 1,-1.059017 0.55,-0.339919 1,-0.141476 1,0.440983 0,0.582459 -0.45,1.059017 -1,1.059017 -0.55,0 -1,-0.198442 -1,-0.440983 z M 281,55.573324 C 281,54.645689 281.855,54 283.08333,54 c 2.43705,0 2.09257,2.336773 -0.4162,2.823324 C 281.68037,57.014697 281,56.504563 281,55.573324 z M 1451.6667,33.333333 c -1.3565,-1.356474 -0.6743,-7.116444 0.9151,-7.726344 2.8354,-1.088055 5.0748,-0.643957 6.895,1.367388 1.6732,1.848858 1.6816,2.13494 0.1319,4.5 -1.594,2.432756 -6.273,3.527959 -7.942,1.858956 z M 1466.1904,25.25 c 0.1853,-0.9625 0.9997,-1.75 1.8096,-1.75 0.8099,0 1.6243,0.7875 1.8096,1.75 0.2365,1.227849 -0.3035,1.75 -1.8096,1.75 -1.5061,0 -2.0461,-0.522151 -1.8096,-1.75 z M 707,15 c 0,-0.55 0.45,-1 1,-1 0.55,0 1,0.45 1,1 0,0.55 -0.45,1 -1,1 -0.55,0 -1,-0.45 -1,-1 z"
     id="path2987"
     inkscape:connector-curvature="0" />
</svg>
